<!-- Generator: Adobe Illustrator 19.2.0, SVG Export Plug-In  -->
<svg version="1.1"
	 xmlns="http://www.w3.org/2000/svg" xmlns:xlink="http://www.w3.org/1999/xlink" xmlns:a="http://ns.adobe.com/AdobeSVGViewerExtensions/3.0/"
	 x="0px" y="0px" width="491.653px" height="143.417px" viewBox="0 0 491.653 143.417"
	 style="enable-background:new 0 0 491.653 143.417;" xml:space="preserve">
<style type="text/css">
	.st0{fill-rule:evenodd;clip-rule:evenodd;fill:#B2B2B2;}
	.st1{fill-rule:evenodd;clip-rule:evenodd;fill:#FFFFFF;}
	.st2{fill-rule:evenodd;clip-rule:evenodd;fill:url(#SVGID_1_);}
	.st3{fill-rule:evenodd;clip-rule:evenodd;fill:url(#SVGID_2_);}
	.st4{fill-rule:evenodd;clip-rule:evenodd;fill:#CC1E5B;}
	.st5{fill-rule:evenodd;clip-rule:evenodd;fill:url(#SVGID_3_);}
	.st6{fill:#FFFFFF;}
	.st7{fill:#EB008B;}
	.st8{fill-rule:evenodd;clip-rule:evenodd;fill:url(#SVGID_4_);}
	.st9{fill-rule:evenodd;clip-rule:evenodd;fill:url(#SVGID_5_);}
	.st10{fill-rule:evenodd;clip-rule:evenodd;fill:url(#SVGID_6_);}
</style>
<defs>
</defs>
<g>
	<g>
		<path class="st0" d="M11.539,50.216h468.716c11.561,0,11.529,0.38,11.363,16.622v31.014c0,16.553-0.353,17.505-12.305,17.66
			H12.267c-13.412,0-12.241,1.851-12.241-16.13V64.613C0.026,48.13-0.728,50.216,11.539,50.216z"/>
		<path class="st1" d="M14.578,46.048h462.639c11.411,0,11.379,0.375,11.214,16.408v30.607c0,16.339-0.348,17.28-12.144,17.43
			H15.294c-13.236,0-12.08,1.83-12.08-15.922V60.258C3.215,43.989,2.471,46.048,14.578,46.048z"/>
		<g>
			<linearGradient id="SVGID_1_" gradientUnits="userSpaceOnUse" x1="245.8109" y1="75.9009" x2="245.4659" y2="123.3134">
				<stop  offset="0" style="stop-color:#EE2A5B"/>
				<stop  offset="0.36" style="stop-color:#EE2961"/>
				<stop  offset="1" style="stop-color:#FFFFFF"/>
			</linearGradient>
			<path class="st2" d="M17.761,46.493h456.272c11.251,0,11.219,0.369,11.059,16.183V92.86c0,16.114-0.342,17.045-11.978,17.195
				H18.467c-13.054,0-11.914,1.797-11.914-15.702V60.504C6.553,44.46,5.82,46.493,17.761,46.493z"/>
			<linearGradient id="SVGID_2_" gradientUnits="userSpaceOnUse" x1="244.7081" y1="122.8839" x2="246.2463" y2="34.7634">
				<stop  offset="0" style="stop-color:#EE2A5B"/>
				<stop  offset="0.54" style="stop-color:#E94A80"/>
				<stop  offset="1" style="stop-color:#FFFFFF"/>
			</linearGradient>
			<path class="st3" d="M17.766,46.493h456.267c11.251,0,11.219,0.369,11.059,16.183v1.562
				c-35.818,4.317-121.325,14.108-238.868,24.128c-86.877,7.404-176.638,0.171-239.671-7.805V60.504
				C6.553,44.46,5.82,46.493,17.766,46.493z"/>
			<g>
				<path class="st4" d="M25.47,54.079h389.382c3.119,0,7.768-0.289,10.149,2.081c2.601,2.584,2.087,8.223,2.044,11.599v20.351
					c0,11.722-0.77,14.226-12.974,14.349H26.075c-3.092,0-8.784,0.679-11.144-1.605c-2.466-2.386-1.782-8.533-1.782-11.738V66.282
					c0-3.033-0.577-8.549,1.824-10.78C17.242,53.389,22.533,54.079,25.47,54.079z"/>
				<path class="st1" d="M25.47,56.834h389.382c9.603,0,9.576,0.246,9.437,10.913v20.362c0,10.866-0.295,11.497-10.224,11.594
					H26.075c-11.144,0-10.17,1.219-10.17-10.588V66.282C15.905,55.465,15.279,56.834,25.47,56.834z"/>
			</g>
		</g>
	</g>
	<linearGradient id="SVGID_3_" gradientUnits="userSpaceOnUse" x1="245.8093" y1="118.0422" x2="245.8093" y2="136.9256">
		<stop  offset="0" style="stop-color:#DBDBDB"/>
		<stop  offset="0.0726" style="stop-color:#E1E1E1"/>
		<stop  offset="0.3405" style="stop-color:#F2F2F2"/>
		<stop  offset="0.6342" style="stop-color:#FCFCFC"/>
		<stop  offset="1" style="stop-color:#FFFFFF"/>
	</linearGradient>
	<path class="st5" d="M491.619,143.417v-10.138c0-16.553-0.353-17.51-12.305-17.66H12.267c-13.412,0-12.241-1.851-12.241,16.13
		v11.668H491.619z"/>
</g>
<g>
	<path class="st6" d="M447.775,54.574c-8.041,0-14.559,6.518-14.559,14.559c0,8.041,6.518,14.559,14.559,14.559
		s14.559-6.518,14.559-14.559C462.334,61.092,455.816,54.574,447.775,54.574z M447.775,81.732c-6.959,0-12.6-5.641-12.6-12.6
		c0-6.959,5.641-12.6,12.6-12.6s12.6,5.641,12.6,12.6C460.375,76.091,454.733,81.732,447.775,81.732z"/>
	<polygon class="st6" points="455.926,80.161 459.039,77.37 481.416,95.769 477.044,100.207 	"/>
</g>
<g>
	<path class="st7" d="M76.321,9.436c0.125,0.374,0.188,0.779,0.188,1.339c0,4.765-3.737,5.201-3.737,10.62
		c0,1.557,0.623,2.149,1.713,2.149s1.713-0.592,1.713-2.149v-2.367h3.239v2.149c0,3.488-1.713,5.481-5.046,5.481
		c-3.332,0-5.045-1.993-5.045-5.481c0-5.668,4.049-6.54,4.049-10.526c0-0.405-0.031-0.81-0.125-1.215H76.321z M73.176,7.91V4.609
		h3.301V7.91H73.176z"/>
	<path class="st7" d="M91.236,18.281v2.896c0,3.488-1.744,5.481-5.107,5.481s-5.107-1.993-5.107-5.481V9.841
		c0-3.488,1.744-5.481,5.107-5.481s5.107,1.993,5.107,5.481v2.118h-3.238V9.623c0-1.557-0.686-2.149-1.775-2.149
		s-1.775,0.592-1.775,2.149v11.772c0,1.557,0.686,2.118,1.775,2.118s1.775-0.561,1.775-2.118v-3.114H91.236z"/>
	<path class="st7" d="M93.039,9.841c0-3.488,1.837-5.481,5.2-5.481c3.364,0,5.201,1.993,5.201,5.481v11.336
		c0,3.488-1.837,5.481-5.201,5.481c-3.363,0-5.2-1.993-5.2-5.481V9.841z M101.914,0l-3.176,3.457h-2.305L98.551,0H101.914z
		 M96.465,21.395c0,1.557,0.685,2.149,1.774,2.149c1.091,0,1.775-0.592,1.775-2.149V9.623c0-1.557-0.685-2.149-1.775-2.149
		c-1.09,0-1.774,0.592-1.774,2.149V21.395z"/>
	<path class="st7" d="M112.907,20.087l2.336-15.478h4.765v21.8h-3.238V10.775l-2.367,15.634h-3.239l-2.554-15.416v15.416h-2.989
		v-21.8h4.765L112.907,20.087z"/>
	<path class="st7" d="M122.215,9.841c0-3.488,1.837-5.481,5.2-5.481c3.364,0,5.201,1.993,5.201,5.481v11.336
		c0,3.488-1.837,5.481-5.201,5.481c-3.363,0-5.2-1.993-5.2-5.481V9.841z M125.641,21.395c0,1.557,0.685,2.149,1.774,2.149
		c1.091,0,1.775-0.592,1.775-2.149V9.623c0-1.557-0.685-2.149-1.775-2.149c-1.09,0-1.774,0.592-1.774,2.149V21.395z"/>
	<path class="st7" d="M138.655,4.609h10.589v3.114h-3.581v18.686h-3.426V7.723h-3.582V4.609z"/>
	<path class="st7" d="M154.161,13.796h4.702v3.114h-4.702v6.384h5.917v3.114h-9.343v-21.8h9.343v3.114h-5.917V13.796z"/>
	<path class="st7" d="M166.741,9.841c0-3.488,1.837-5.481,5.2-5.481c3.364,0,5.201,1.993,5.201,5.481v11.336
		c0,1.214-0.218,2.242-0.654,3.052c0.156,0.405,0.405,0.467,0.966,0.467h0.312v3.052h-0.467c-1.526,0-2.492-0.561-2.959-1.495
		c-0.686,0.249-1.495,0.405-2.398,0.405c-3.363,0-5.2-1.993-5.2-5.481V9.841z M170.166,21.395c0,1.557,0.685,2.149,1.774,2.149
		c1.091,0,1.775-0.592,1.775-2.149V9.623c0-1.557-0.685-2.149-1.775-2.149c-1.09,0-1.774,0.592-1.774,2.149V21.395z"/>
	<path class="st7" d="M182.62,4.609v16.817c0,1.557,0.686,2.118,1.775,2.118s1.775-0.561,1.775-2.118V4.609h3.238v16.6
		c0,3.488-1.744,5.481-5.107,5.481s-5.107-1.993-5.107-5.481v-16.6H182.62z"/>
	<path class="st7" d="M191.744,4.609h3.426v21.8h-3.426V4.609z"/>
	<path class="st7" d="M201.084,13.796h4.702v3.114h-4.702v6.384h5.917v3.114h-9.343v-21.8h9.343v3.114h-5.917V13.796z"/>
	<path class="st7" d="M216.28,26.409c-0.187-0.561-0.311-0.903-0.311-2.678v-3.426c0-2.024-0.686-2.772-2.243-2.772h-1.183v8.876
		h-3.426v-21.8h5.169c3.551,0,5.077,1.651,5.077,5.014v1.713c0,2.242-0.717,3.706-2.242,4.422c1.713,0.716,2.273,2.367,2.273,4.64
		v3.364c0,1.059,0.03,1.837,0.373,2.647H216.28z M212.543,7.723v6.696h1.339c1.276,0,2.056-0.561,2.056-2.305V9.966
		c0-1.558-0.529-2.243-1.744-2.243H212.543z"/>
	<path class="st7" d="M225.06,13.796h4.702v3.114h-4.702v6.384h5.917v3.114h-9.343v-21.8h9.343v3.114h-5.917V13.796z"/>
	<path class="st7" d="M237.701,4.36c3.333,0,5.046,1.993,5.046,5.481v0.686h-3.239V9.623c0-1.557-0.623-2.149-1.713-2.149
		s-1.713,0.592-1.713,2.149c0,4.484,6.696,5.325,6.696,11.554c0,3.488-1.744,5.481-5.107,5.481c-3.364,0-5.108-1.993-5.108-5.481
		v-1.339h3.239v1.557c0,1.557,0.686,2.118,1.775,2.118s1.775-0.561,1.775-2.118c0-4.484-6.696-5.325-6.696-11.554
		C232.656,6.353,234.369,4.36,237.701,4.36z"/>
	<path class="st7" d="M252.99,13.796h4.702v3.114h-4.702v6.384h5.917v3.114h-9.343v-21.8h9.343v3.114h-5.917V13.796z"/>
	<path class="st7" d="M268.278,20.087l2.336-15.478h4.765v21.8h-3.238V10.775l-2.367,15.634h-3.239l-2.554-15.416v15.416h-2.989
		v-21.8h4.765L268.278,20.087z"/>
	<path class="st7" d="M288.113,9.623v0.778c0,2.243-0.686,3.675-2.212,4.392c1.838,0.716,2.554,2.367,2.554,4.671v1.775
		c0,3.364-1.774,5.17-5.2,5.17h-5.388v-21.8h5.169C286.586,4.609,288.113,6.26,288.113,9.623z M281.292,7.723v5.762h1.339
		c1.276,0,2.056-0.561,2.056-2.305V9.966c0-1.558-0.529-2.243-1.744-2.243H281.292z M281.292,16.599v6.696h1.962
		c1.152,0,1.774-0.529,1.774-2.149v-1.9c0-2.024-0.653-2.647-2.211-2.647H281.292z"/>
	<path class="st7" d="M293.934,13.796h4.702v3.114h-4.702v6.384h5.917v3.114h-9.343v-21.8h9.343v3.114h-5.917V13.796z"/>
	<path class="st7" d="M301.966,4.609h3.426v18.686h5.637v3.114h-9.062V4.609z"/>
	<path class="st7" d="M312.522,4.609h3.426v18.686h5.637v3.114h-9.062V4.609z"/>
	<path class="st7" d="M326.502,13.796h4.702v3.114h-4.702v6.384h5.917v3.114h-9.343v-21.8h9.343v3.114h-5.917V13.796z"/>
	<path class="st7" d="M344.47,18.281v2.896c0,3.488-1.744,5.481-5.107,5.481c-3.364,0-5.107-1.993-5.107-5.481V9.841
		c0-3.488,1.743-5.481,5.107-5.481c3.363,0,5.107,1.993,5.107,5.481v2.118h-3.239V9.623c0-1.557-0.685-2.149-1.775-2.149
		c-1.09,0-1.774,0.592-1.774,2.149v11.772c0,1.557,0.685,2.118,1.774,2.118c1.091,0,1.775-0.561,1.775-2.118v-3.114H344.47z"/>
	<path class="st7" d="M349.98,13.796h4.702v3.114h-4.702v6.384h5.917v3.114h-9.343v-21.8h9.343v3.114h-5.917V13.796z"/>
	<path class="st7" d="M365.174,26.409c-0.187-0.561-0.311-0.903-0.311-2.678v-3.426c0-2.024-0.686-2.772-2.243-2.772h-1.183v8.876
		h-3.426v-21.8h5.169c3.551,0,5.077,1.651,5.077,5.014v1.713c0,2.242-0.717,3.706-2.242,4.422c1.713,0.716,2.273,2.367,2.273,4.64
		v3.364c0,1.059,0.03,1.837,0.373,2.647H365.174z M361.438,7.723v6.696h1.339c1.276,0,2.056-0.561,2.056-2.305V9.966
		c0-1.558-0.529-2.243-1.744-2.243H361.438z"/>
	<path class="st7" d="M378.781,26.409h-3.426v-21.8h3.426v9.343h3.893V4.609h3.488v21.8h-3.488v-9.343h-3.893V26.409z"/>
	<path class="st7" d="M388.37,9.841c0-3.488,1.837-5.481,5.2-5.481c3.364,0,5.201,1.993,5.201,5.481v11.336
		c0,3.488-1.837,5.481-5.201,5.481c-3.363,0-5.2-1.993-5.2-5.481V9.841z M391.796,21.395c0,1.557,0.685,2.149,1.774,2.149
		c1.091,0,1.775-0.592,1.775-2.149V9.623c0-1.557-0.685-2.149-1.775-2.149c-1.09,0-1.774,0.592-1.774,2.149V21.395z"/>
	<path class="st7" d="M403.721,19.184l-4.328-14.575h3.581l2.616,9.935l2.616-9.935h3.27l-4.329,14.575v7.225h-3.426V19.184z"/>
	<path class="st7" d="M415.335,21.582c-0.125-0.374-0.187-0.779-0.187-1.339c0-4.765,3.736-5.201,3.736-10.62
		c0-1.557-0.622-2.149-1.713-2.149c-1.09,0-1.713,0.592-1.713,2.149v2.367h-3.238V9.841c0-3.488,1.713-5.481,5.045-5.481
		s5.045,1.993,5.045,5.481c0,5.668-4.048,6.54-4.048,10.526c0,0.405,0.03,0.81,0.124,1.215H415.335z M418.481,23.108v3.301h-3.302
		v-3.301H418.481z"/>
</g>
</svg>