<!-- Generator: Adobe Illustrator 19.2.0, SVG Export Plug-In  -->
<svg version="1.1"
	 xmlns="http://www.w3.org/2000/svg" xmlns:xlink="http://www.w3.org/1999/xlink" xmlns:a="http://ns.adobe.com/AdobeSVGViewerExtensions/3.0/"
	 x="0px" y="0px" width="482.849px" height="430.763px" viewBox="0 0 482.849 430.763"
	 style="enable-background:new 0 0 482.849 430.763;" xml:space="preserve">
<style type="text/css">
	.st0{fill:url(#SVGID_1_);}
	.st1{fill:#FFFFFF;}
	.st2{fill:url(#SVGID_2_);}
	.st3{fill:url(#SVGID_3_);}
	.st4{fill:url(#SVGID_4_);}
	.st5{fill:url(#SVGID_5_);}
	.st6{fill:url(#SVGID_6_);}
	.st7{fill:url(#SVGID_7_);}
	.st8{fill:url(#SVGID_8_);}
	.st9{fill:url(#SVGID_9_);}
	.st10{fill:url(#SVGID_10_);}
	.st11{fill:url(#SVGID_11_);}
	.st12{fill:url(#SVGID_12_);}
	.st13{fill:url(#SVGID_13_);}
	.st14{fill:url(#SVGID_14_);}
	.st15{fill:url(#SVGID_15_);}
	.st16{fill:url(#SVGID_16_);}
	.st17{fill:url(#SVGID_17_);}
	.st18{fill:url(#SVGID_18_);}
	.st19{fill:url(#SVGID_19_);}
	.st20{fill:url(#SVGID_20_);}
	.st21{fill:url(#SVGID_21_);}
	.st22{fill:url(#SVGID_22_);}
	.st23{fill:url(#SVGID_23_);}
	.st24{fill:url(#SVGID_24_);}
</style>
<defs>
</defs>
<g>
	<linearGradient id="SVGID_1_" gradientUnits="userSpaceOnUse" x1="4.0983" y1="60.81" x2="125.7183" y2="60.81">
		<stop  offset="0" style="stop-color:#F062A4"/>
		<stop  offset="0.114" style="stop-color:#DC6AAB"/>
		<stop  offset="0.3474" style="stop-color:#A97FBB"/>
		<stop  offset="0.6757" style="stop-color:#579FD6"/>
		<stop  offset="1" style="stop-color:#00C2F3"/>
	</linearGradient>
	<circle class="st0" cx="64.908" cy="60.81" r="60.81"/>
	<path class="st1" d="M77.551,47.166c-1.753-2.088-3.136-3.737-4.695-5.594c-2.511,1.689-4.978,3.393-7.488,5.029
		c-8.543,5.568-17.669,9.775-27.723,11.808c-3.087,0.624-5.355-0.524-5.887-3.058c-0.495-2.355,1.016-4.353,4.065-4.993
		c11.758-2.47,21.88-8.291,31.704-15.267c-1.506-1.851-2.953-3.629-4.698-5.775c7.744-1.301,15.081-2.534,22.827-3.836
		C82.923,32.793,80.318,39.762,77.551,47.166z"/>
	<path class="st1" d="M98.139,69.111c0.001,5.787,0.015,11.575-0.004,17.362c-0.014,4.033-1.444,5.454-5.451,5.493
		c-0.864,0.008-1.73,0.039-2.591-0.017c-2.757-0.179-4.371-1.667-4.385-4.44c-0.061-12.266-0.061-24.532,0-36.797
		c0.014-2.773,1.627-4.266,4.385-4.438c1.033-0.064,2.073-0.042,3.109-0.014c3.349,0.091,4.898,1.601,4.924,4.971
		C98.172,57.191,98.139,63.151,98.139,69.111z"/>
	<path class="st1" d="M81.515,73.41c0.001,4.49,0.032,8.98-0.009,13.47c-0.033,3.533-1.542,5.011-5.071,5.084
		c-1.036,0.021-2.077,0.054-3.107-0.023c-2.61-0.196-4.215-1.679-4.235-4.311c-0.075-9.583-0.076-19.168,0.002-28.752
		c0.021-2.621,1.642-4.1,4.261-4.285c1.117-0.079,2.245-0.057,3.366-0.018c3.193,0.109,4.739,1.624,4.779,4.848
		C81.557,64.085,81.515,68.748,81.515,73.41z"/>
	<path class="st1" d="M52.43,77.307c-0.002-3.193-0.048-6.386,0.011-9.578c0.059-3.221,1.589-4.734,4.782-4.842
		c1.12-0.038,2.248-0.06,3.364,0.018c2.617,0.184,4.226,1.663,4.261,4.28c0.091,6.816,0.09,13.634,0.002,20.45
		c-0.034,2.627-1.628,4.118-4.236,4.304c-1.202,0.086-2.417,0.072-3.622,0.014c-2.903-0.139-4.465-1.645-4.539-4.55
		C52.366,84.039,52.432,80.672,52.43,77.307z"/>
	<path class="st1" d="M35.812,81.413c-0.003-1.897-0.067-3.796,0.012-5.689c0.12-2.888,1.659-4.384,4.567-4.522
		c1.118-0.053,2.244-0.055,3.361,0.003c2.793,0.147,4.403,1.6,4.476,4.332c0.108,4.049,0.11,8.105-0.004,12.154
		c-0.073,2.608-1.661,4.08-4.286,4.248c-1.288,0.083-2.59,0.087-3.877-0.004c-2.599-0.184-4.097-1.685-4.225-4.317
		C35.735,85.555,35.816,83.482,35.812,81.413z"/>
</g>
<g>
	<linearGradient id="SVGID_2_" gradientUnits="userSpaceOnUse" x1="178.6483" y1="60.81" x2="300.2683" y2="60.81">
		<stop  offset="0" style="stop-color:#F062A4"/>
		<stop  offset="0.114" style="stop-color:#DC6AAB"/>
		<stop  offset="0.3474" style="stop-color:#A97FBB"/>
		<stop  offset="0.6757" style="stop-color:#579FD6"/>
		<stop  offset="1" style="stop-color:#00C2F3"/>
	</linearGradient>
	<circle class="st2" cx="239.458" cy="60.81" r="60.81"/>
	<path class="st1" d="M277.224,38.52v44.535c0,3.87-3.113,7.337-6.982,7.337h-61.487c-3.87,0-7.017-3.468-7.017-7.337V38.52
		c0-3.87,3.148-6.648,7.017-6.648h6.752v4.035c0,2.767,2.156,5.027,4.918,5.027c2.762,0,4.918-2.26,4.918-5.027v-4.035h28.277v4.035
		c0,2.767,2.153,5.027,4.92,5.027c2.762,0,4.915-2.26,4.915-5.027v-4.035h6.787C274.111,31.872,277.224,34.651,277.224,38.52z"/>
	<linearGradient id="SVGID_3_" gradientUnits="userSpaceOnUse" x1="207.6293" y1="67.9453" x2="271.3673" y2="67.9453">
		<stop  offset="0" style="stop-color:#F062A4"/>
		<stop  offset="0.114" style="stop-color:#DC6AAB"/>
		<stop  offset="0.3474" style="stop-color:#A97FBB"/>
		<stop  offset="0.6757" style="stop-color:#579FD6"/>
		<stop  offset="1" style="stop-color:#00C2F3"/>
	</linearGradient>
	<rect x="207.629" y="52.086" class="st3" width="63.738" height="31.718"/>
	<g>
		<rect x="212.065" y="56.946" class="st1" width="9.436" height="9.436"/>
		<rect x="227.208" y="56.946" class="st1" width="9.436" height="9.436"/>
		<rect x="242.352" y="56.946" class="st1" width="9.436" height="9.436"/>
		<rect x="257.495" y="56.946" class="st1" width="9.436" height="9.436"/>
	</g>
	<g>
		<rect x="212.065" y="70.281" class="st1" width="9.436" height="9.436"/>
		<rect x="227.208" y="70.281" class="st1" width="9.436" height="9.436"/>
		<rect x="242.352" y="70.281" class="st1" width="9.436" height="9.436"/>
		<rect x="257.495" y="70.281" class="st1" width="9.436" height="9.436"/>
	</g>
	<path class="st1" d="M222.801,38.558h-4.753c-0.258,0-0.469-0.211-0.469-0.469V27.98c0-0.258,0.211-0.469,0.469-0.469h4.753
		c0.258,0,0.469,0.211,0.469,0.469v10.11C223.27,38.347,223.059,38.558,222.801,38.558z"/>
	<path class="st1" d="M260.823,38.558h-4.753c-0.258,0-0.469-0.211-0.469-0.469V27.98c0-0.258,0.211-0.469,0.469-0.469h4.753
		c0.258,0,0.469,0.211,0.469,0.469v10.11C261.292,38.347,261.081,38.558,260.823,38.558z"/>
</g>
<g>
	<linearGradient id="SVGID_4_" gradientUnits="userSpaceOnUse" x1="4.0983" y1="310.8387" x2="125.7183" y2="310.8387">
		<stop  offset="0" style="stop-color:#F062A4"/>
		<stop  offset="0.114" style="stop-color:#DC6AAB"/>
		<stop  offset="0.3474" style="stop-color:#A97FBB"/>
		<stop  offset="0.6757" style="stop-color:#579FD6"/>
		<stop  offset="1" style="stop-color:#00C2F3"/>
	</linearGradient>
	<circle class="st4" cx="64.908" cy="310.839" r="60.81"/>
	<path class="st1" d="M31.241,308.547c0-14.577,15.075-26.392,33.667-26.392c18.594,0,33.667,11.815,33.667,26.392
		c0,13.301-12.552,24.302-28.872,26.125l7.518,13.279l-14.398-13.064C45.203,334.042,31.241,322.576,31.241,308.547z"/>
	<linearGradient id="SVGID_5_" gradientUnits="userSpaceOnUse" x1="73.687" y1="308.3735" x2="81.521" y2="308.3735">
		<stop  offset="0" style="stop-color:#F062A4"/>
		<stop  offset="0.114" style="stop-color:#DC6AAB"/>
		<stop  offset="0.3474" style="stop-color:#A97FBB"/>
		<stop  offset="0.6757" style="stop-color:#579FD6"/>
		<stop  offset="1" style="stop-color:#00C2F3"/>
	</linearGradient>
	<circle class="st5" cx="77.604" cy="308.374" r="3.917"/>
	<linearGradient id="SVGID_6_" gradientUnits="userSpaceOnUse" x1="60.9913" y1="308.3735" x2="68.8253" y2="308.3735">
		<stop  offset="0" style="stop-color:#F062A4"/>
		<stop  offset="0.114" style="stop-color:#DC6AAB"/>
		<stop  offset="0.3474" style="stop-color:#A97FBB"/>
		<stop  offset="0.6757" style="stop-color:#579FD6"/>
		<stop  offset="1" style="stop-color:#00C2F3"/>
	</linearGradient>
	<circle class="st6" cx="64.908" cy="308.374" r="3.917"/>
	<linearGradient id="SVGID_7_" gradientUnits="userSpaceOnUse" x1="48.2955" y1="308.3735" x2="56.1296" y2="308.3735">
		<stop  offset="0" style="stop-color:#F062A4"/>
		<stop  offset="0.114" style="stop-color:#DC6AAB"/>
		<stop  offset="0.3474" style="stop-color:#A97FBB"/>
		<stop  offset="0.6757" style="stop-color:#579FD6"/>
		<stop  offset="1" style="stop-color:#00C2F3"/>
	</linearGradient>
	<circle class="st7" cx="52.213" cy="308.374" r="3.917"/>
</g>
<g>
	<linearGradient id="SVGID_8_" gradientUnits="userSpaceOnUse" x1="345.1676" y1="61.6637" x2="466.7877" y2="61.6637">
		<stop  offset="0" style="stop-color:#F062A4"/>
		<stop  offset="0.114" style="stop-color:#DC6AAB"/>
		<stop  offset="0.3474" style="stop-color:#A97FBB"/>
		<stop  offset="0.6757" style="stop-color:#579FD6"/>
		<stop  offset="1" style="stop-color:#00C2F3"/>
	</linearGradient>
	<circle class="st8" cx="405.978" cy="61.664" r="60.81"/>
	<path class="st1" d="M435.506,57.648c0,16.308-29.528,43.106-29.528,43.106S376.45,73.956,376.45,57.648
		c0-16.308,13.22-29.528,29.528-29.528C422.285,28.12,435.506,41.34,435.506,57.648z"/>
	<linearGradient id="SVGID_9_" gradientUnits="userSpaceOnUse" x1="384.8487" y1="56.4614" x2="427.1066" y2="56.4614">
		<stop  offset="0" style="stop-color:#F062A4"/>
		<stop  offset="0.114" style="stop-color:#DC6AAB"/>
		<stop  offset="0.3474" style="stop-color:#A97FBB"/>
		<stop  offset="0.6757" style="stop-color:#579FD6"/>
		<stop  offset="1" style="stop-color:#00C2F3"/>
	</linearGradient>
	<circle class="st9" cx="405.978" cy="56.461" r="21.129"/>
	<rect x="481.916" y="85.068" class="st1" width="0.933" height="1.232"/>
</g>
<g>
	<linearGradient id="SVGID_10_" gradientUnits="userSpaceOnUse" x1="353.1982" y1="312.2906" x2="474.8183" y2="312.2906">
		<stop  offset="0" style="stop-color:#F062A4"/>
		<stop  offset="0.114" style="stop-color:#DC6AAB"/>
		<stop  offset="0.3474" style="stop-color:#A97FBB"/>
		<stop  offset="0.6757" style="stop-color:#579FD6"/>
		<stop  offset="1" style="stop-color:#00C2F3"/>
	</linearGradient>
	<circle class="st10" cx="414.008" cy="312.291" r="60.81"/>
	<circle class="st1" cx="414.219" cy="312.654" r="36.47"/>
	<linearGradient id="SVGID_11_" gradientUnits="userSpaceOnUse" x1="385.3058" y1="312.6537" x2="443.1328" y2="312.6537">
		<stop  offset="0" style="stop-color:#F062A4"/>
		<stop  offset="0.114" style="stop-color:#DC6AAB"/>
		<stop  offset="0.3474" style="stop-color:#A97FBB"/>
		<stop  offset="0.6757" style="stop-color:#579FD6"/>
		<stop  offset="1" style="stop-color:#00C2F3"/>
	</linearGradient>
	<circle class="st11" cx="414.219" cy="312.654" r="28.914"/>
	<polygon class="st1" points="417.389,312.654 433.097,297.425 414.865,309.701 	"/>
	<polygon class="st1" points="410.862,313.295 401.14,305.134 413.044,309.992 	"/>
	
		<rect x="422.353" y="311.613" transform="matrix(0.6992 -0.7149 0.7149 0.6992 -102.8095 398.8752)" class="st1" width="0.522" height="20.004"/>
	<rect x="413.843" y="283.74" class="st1" width="1.175" height="2.959"/>
	
		<rect x="427.613" y="287.277" transform="matrix(0.8656 0.5007 -0.5007 0.8656 201.8694 -175.5117)" class="st1" width="0.533" height="2.023"/>
	
		<rect x="437.974" y="297.394" transform="matrix(0.4985 0.8669 -0.8669 0.4985 478.4675 -230.2553)" class="st1" width="0.533" height="2.023"/>
	
		<rect x="438.26" y="325.352" transform="matrix(-0.503 0.8643 -0.8643 -0.503 941.1729 111.503)" class="st1" width="0.533" height="2.023"/>
	
		<rect x="428.132" y="335.688" transform="matrix(-0.8682 0.4963 -0.4963 -0.8682 967.4161 416.3998)" class="st1" width="0.533" height="2.023"/>
	
		<rect x="400.168" y="335.935" transform="matrix(-0.863 -0.5052 0.5052 -0.863 575.7966 830.0275)" class="st1" width="0.533" height="2.023"/>
	
		<rect x="389.865" y="325.762" transform="matrix(-0.494 -0.8695 0.8695 -0.494 298.7422 827.4048)" class="st1" width="0.533" height="2.023"/>
	
		<rect x="389.704" y="297.799" transform="matrix(0.5074 -0.8617 0.8617 0.5074 -65.3985 483.213)" class="st1" width="0.533" height="2.023"/>
	
		<rect x="399.903" y="287.532" transform="matrix(0.8707 -0.4918 0.4918 0.8707 -90.1669 234.1073)" class="st1" width="0.533" height="2.023"/>
	<rect x="413.843" y="338.608" class="st1" width="1.175" height="2.959"/>
	
		<rect x="441.066" y="311.174" transform="matrix(-1.836970e-16 1 -1 -1.836970e-16 754.3071 -128.9997)" class="st1" width="1.175" height="2.959"/>
	
		<rect x="386.198" y="311.174" transform="matrix(-1.836970e-16 1 -1 -1.836970e-16 699.4388 -74.1314)" class="st1" width="1.175" height="2.959"/>
	<circle class="st1" cx="414.219" cy="312.654" r="3.329"/>
	<circle class="st1" cx="414.219" cy="312.654" r="2.241"/>
</g>
<g>
	<linearGradient id="SVGID_12_" gradientUnits="userSpaceOnUse" x1="178.6483" y1="310.8387" x2="300.2683" y2="310.8387">
		<stop  offset="0" style="stop-color:#F062A4"/>
		<stop  offset="0.114" style="stop-color:#DC6AAB"/>
		<stop  offset="0.3474" style="stop-color:#A97FBB"/>
		<stop  offset="0.6757" style="stop-color:#579FD6"/>
		<stop  offset="1" style="stop-color:#00C2F3"/>
	</linearGradient>
	<circle class="st12" cx="239.458" cy="310.839" r="60.81"/>
	<path class="st1" d="M271.804,309.241c-0.386,0.237-0.783,0.444-1.225,0.564c-0.485,0.132-0.607,0.901-0.211,1.268
		c0.668,0.623,1.039,1.412,1.201,2.291c0.298,1.609-0.323,2.895-1.506,3.948c-0.485,0.43-1.035,0.769-1.633,1.027
		c-0.625,0.268-0.753,1.106-0.239,1.546c1.177,1.006,1.517,2.422,0.901,3.932c-0.501,1.226-1.303,2.21-2.481,2.853
		c-0.156,0.085-0.327,0.152-0.495,0.207c-0.418,0.136-0.584,0.327-0.619,0.763c-0.024,0.323,0.069,0.588,0.329,0.814
		c0.641,0.556,1.102,1.232,1.213,2.094c0.085,0.659-0.048,1.286-0.331,1.885c-0.426,0.905-1.071,1.635-1.824,2.276
		c-0.35,0.299-1.273,0.763-1.983,1.071c-0.392,0.17-1.588,0.422-1.941,0.493c-17.421,3.539-29.656-1.045-31.213-1.609
		c-0.328-0.119-1.412-0.822-1.706-0.824c-0.051,0-0.416-0.089-0.416-0.136V307.62c0.649-0.457,1.298-0.915,1.95-1.372
		c0.065-0.045,0.12-0.095,0.172-0.152c0.02-0.021,0.038-0.043,0.057-0.067c3.459-4.35,5.682-8.973,8.261-13.894
		c1.723-3.288,2.157-10.309,2.141-12.955c-0.006-1.058,0.793-2.792,2.866-2.792c0.524,0.01,1.615,0.041,2.273,0.282
		c0.782,0.287,1.448,1.307,2.116,2.615c0.909,1.783,1.484,3.714,2.025,5.648c0.203,0.726,0.373,1.463,0.483,2.207
		c0.079,0.544,0.081,1.098,0.043,1.645c-0.043,0.629-0.079,1.256-0.14,1.883c-0.122,1.233-0.296,2.459-0.505,3.679
		c-0.226,1.323-0.478,2.641-0.747,3.955c-0.003,0.015-0.006,0.03-0.01,0.046c-0.002,0.096-0.017,0.204-0.048,0.325
		c-0.429,1.689,1.292,2.68,2.309,3.108c0.27,0.114,1.382,0.248,1.688,0.248c5.57-0.003,14.911-0.032,16.038-0.028
		c0.753,0.002,1.509-0.016,2.26,0.022c1.24,0.065,2.597,0.859,2.997,2.512C274.281,306.306,273.441,308.225,271.804,309.241z"/>
	<path class="st1" d="M211.308,338.859h14.85c0.806,0,1.465-0.659,1.465-1.465v-32.168c0-0.806-0.659-1.465-1.465-1.465h-14.85
		c-0.806,0-1.465,0.659-1.465,1.465v32.168C209.843,338.2,210.503,338.859,211.308,338.859z"/>
	<path class="st1" d="M211.308,338.859h14.85c0.806,0,1.465-0.659,1.465-1.465v-16.315h-17.78v16.315
		C209.843,338.2,210.503,338.859,211.308,338.859z"/>
</g>
<g>
	<path d="M10.866,134.642h10.589v3.114h-3.581v18.686h-3.426v-18.686h-3.582V134.642z"/>
	<path d="M22.667,139.873c0-3.487,1.837-5.48,5.2-5.48c3.364,0,5.201,1.993,5.201,5.48v11.337c0,3.487-1.837,5.48-5.201,5.48
		c-3.363,0-5.2-1.993-5.2-5.48V139.873z M26.093,151.428c0,1.557,0.685,2.148,1.774,2.148c1.091,0,1.775-0.592,1.775-2.148v-11.772
		c0-1.557-0.685-2.148-1.775-2.148c-1.09,0-1.774,0.592-1.774,2.148V151.428z"/>
	<path d="M45.431,140.03v2.834c0,3.488-1.682,5.388-5.107,5.388h-1.619v8.19h-3.426v-21.8h5.045
		C43.749,134.642,45.431,136.541,45.431,140.03z M38.704,137.756v7.381h1.619c1.09,0,1.682-0.498,1.682-2.056v-3.27
		c0-1.558-0.592-2.056-1.682-2.056H38.704z"/>
	<path d="M59.16,156.442c-0.187-0.561-0.311-0.903-0.311-2.678v-3.426c0-2.024-0.686-2.772-2.243-2.772h-1.183v8.876h-3.426v-21.8
		h5.169c3.551,0,5.077,1.65,5.077,5.014v1.713c0,2.242-0.717,3.706-2.242,4.423c1.713,0.716,2.273,2.366,2.273,4.64v3.364
		c0,1.059,0.03,1.837,0.373,2.646H59.16z M55.424,137.756v6.695h1.339c1.276,0,2.056-0.561,2.056-2.305v-2.148
		c0-1.558-0.529-2.242-1.744-2.242H55.424z"/>
	<path d="M75.602,156.442h-3.457l-0.592-3.955h-4.204l-0.592,3.955h-3.146l3.488-21.8h5.014L75.602,156.442z M67.784,149.529h3.302
		l-1.651-11.025L67.784,149.529z"/>
	<path d="M76.19,134.642h10.589v3.114h-3.581v18.686h-3.426v-18.686H76.19V134.642z"/>
	<path d="M88.272,134.642h3.426v21.8h-3.426V134.642z"/>
	<path d="M97.239,140.653v15.789h-3.083v-21.8h4.298l3.519,13.049v-13.049h3.053v21.8h-3.52L97.239,140.653z"/>
	<path d="M112.622,144.296h4.796v6.914c0,3.487-1.744,5.48-5.107,5.48c-3.364,0-5.107-1.993-5.107-5.48v-11.337
		c0-3.487,1.743-5.48,5.107-5.48c3.363,0,5.107,1.993,5.107,5.48v2.118h-3.239v-2.336c0-1.557-0.685-2.148-1.775-2.148
		c-1.09,0-1.774,0.592-1.774,2.148v11.772c0,1.557,0.685,2.117,1.774,2.117c1.091,0,1.775-0.561,1.775-2.117v-4.018h-1.557V144.296z
		"/>
</g>
<g>
	<path d="M193.845,156.442h-3.426v-21.8h3.426v9.343h3.893v-9.343h3.488v21.8h-3.488v-9.343h-3.893V156.442z"/>
	<path d="M214.801,156.442h-3.457l-0.592-3.955h-4.204l-0.592,3.955h-3.146l3.488-21.8h5.014L214.801,156.442z M206.983,149.529
		h3.302l-1.651-11.025L206.983,149.529z"/>
	<path d="M226.291,148.314v2.896c0,3.487-1.744,5.48-5.107,5.48c-3.364,0-5.107-1.993-5.107-5.48v-11.337
		c0-3.487,1.743-5.48,5.107-5.48c3.363,0,5.107,1.993,5.107,5.48v2.118h-3.239v-2.336c0-1.557-0.685-2.148-1.775-2.148
		c-1.09,0-1.774,0.592-1.774,2.148v11.772c0,1.557,0.685,2.117,1.774,2.117c1.091,0,1.775-0.561,1.775-2.117v-3.114H226.291z"/>
	<path d="M231.801,143.829h4.702v3.114h-4.702v6.384h5.917v3.114h-9.343v-21.8h9.343v3.114h-5.917V143.829z"/>
	<path d="M246.995,156.442c-0.187-0.561-0.311-0.903-0.311-2.678v-3.426c0-2.024-0.686-2.772-2.243-2.772h-1.183v8.876h-3.426v-21.8
		h5.169c3.551,0,5.077,1.65,5.077,5.014v1.713c0,2.242-0.717,3.706-2.242,4.423c1.712,0.716,2.273,2.366,2.273,4.64v3.364
		c0,1.059,0.03,1.837,0.373,2.646H246.995z M243.259,137.756v6.695h1.339c1.276,0,2.056-0.561,2.056-2.305v-2.148
		c0-1.558-0.529-2.242-1.744-2.242H243.259z"/>
	<path d="M260.445,134.642v16.817c0,1.557,0.686,2.117,1.775,2.117s1.775-0.561,1.775-2.117v-16.817h3.238v16.6
		c0,3.487-1.744,5.48-5.107,5.48s-5.107-1.993-5.107-5.48v-16.6H260.445z"/>
	<path d="M272.62,140.653v15.789h-3.083v-21.8h4.298l3.519,13.049v-13.049h3.053v21.8h-3.52L272.62,140.653z"/>
	<path d="M293.95,156.442h-3.457l-0.592-3.955h-4.204l-0.592,3.955h-3.146l3.488-21.8h5.014L293.95,156.442z M286.133,149.529h3.302
		l-1.651-11.025L286.133,149.529z"/>
	<path d="M232.658,172.314v2.896c0,3.487-1.744,5.48-5.107,5.48c-3.364,0-5.107-1.993-5.107-5.48v-11.337
		c0-3.487,1.743-5.48,5.107-5.48c3.363,0,5.107,1.993,5.107,5.48v2.118h-3.239v-2.336c0-1.557-0.685-2.148-1.775-2.148
		c-1.09,0-1.774,0.592-1.774,2.148v11.772c0,1.557,0.685,2.117,1.774,2.117c1.091,0,1.775-0.561,1.775-2.117v-3.114H232.658z"/>
	<path d="M234.742,158.642h3.426v21.8h-3.426V158.642z"/>
	<path d="M239.661,158.642h10.589v3.114h-3.581v18.686h-3.426v-18.686h-3.582V158.642z"/>
	<path d="M261.646,180.442h-3.457l-0.592-3.955h-4.204l-0.592,3.955h-3.146l3.488-21.8h5.014L261.646,180.442z M253.829,173.529
		h3.302l-1.651-11.025L253.829,173.529z"/>
</g>
<g>
	<path d="M370.031,134.393c3.333,0,5.046,1.993,5.046,5.48v0.686h-3.239v-0.903c0-1.557-0.623-2.148-1.713-2.148
		s-1.713,0.592-1.713,2.148c0,4.484,6.696,5.325,6.696,11.555c0,3.487-1.744,5.48-5.107,5.48c-3.364,0-5.108-1.993-5.108-5.48v-1.34
		h3.239v1.558c0,1.557,0.686,2.117,1.775,2.117s1.775-0.561,1.775-2.117c0-4.484-6.696-5.325-6.696-11.555
		C364.986,136.386,366.699,134.393,370.031,134.393z"/>
	<path d="M388.155,156.442h-3.457l-0.592-3.955h-4.204l-0.592,3.955h-3.146l3.488-21.8h5.014L388.155,156.442z M380.338,149.529
		h3.302l-1.651-11.025L380.338,149.529z"/>
	<path d="M389.74,134.642h3.426v18.686h5.637v3.114h-9.062V134.642z"/>
	<path d="M400.016,139.873c0-3.487,1.837-5.48,5.2-5.48c3.364,0,5.201,1.993,5.201,5.48v11.337c0,3.487-1.837,5.48-5.201,5.48
		c-3.363,0-5.2-1.993-5.2-5.48V139.873z M403.441,151.428c0,1.557,0.685,2.148,1.774,2.148c1.091,0,1.775-0.592,1.775-2.148v-11.772
		c0-1.557-0.685-2.148-1.775-2.148c-1.09,0-1.774,0.592-1.774,2.148V151.428z"/>
	<path d="M415.678,140.653v15.789h-3.083v-21.8h4.298l3.519,13.049v-13.049h3.053v21.8h-3.52L415.678,140.653z"/>
	<path d="M429.347,143.829h4.702v3.114h-4.702v6.384h5.917v3.114h-9.343v-21.8h9.343v3.114h-5.917V143.829z"/>
	<path d="M441.988,134.393c3.333,0,5.046,1.993,5.046,5.48v0.686h-3.239v-0.903c0-1.557-0.623-2.148-1.713-2.148
		s-1.713,0.592-1.713,2.148c0,4.484,6.696,5.325,6.696,11.555c0,3.487-1.744,5.48-5.107,5.48c-3.364,0-5.108-1.993-5.108-5.48v-1.34
		h3.239v1.558c0,1.557,0.686,2.117,1.775,2.117s1.775-0.561,1.775-2.117c0-4.484-6.696-5.325-6.696-11.555
		C436.943,136.386,438.656,134.393,441.988,134.393z"/>
	<path d="M368.181,172.314v2.896c0,3.487-1.744,5.48-5.107,5.48c-3.364,0-5.107-1.993-5.107-5.48v-11.337
		c0-3.487,1.743-5.48,5.107-5.48c3.363,0,5.107,1.993,5.107,5.48v2.118h-3.239v-2.336c0-1.557-0.685-2.148-1.775-2.148
		c-1.09,0-1.774,0.592-1.774,2.148v11.772c0,1.557,0.685,2.117,1.774,2.117c1.091,0,1.775-0.561,1.775-2.117v-3.114H368.181z"/>
	<path d="M373.69,167.829h4.702v3.114h-4.702v6.384h5.917v3.114h-9.343v-21.8h9.343v3.114h-5.917V167.829z"/>
	<path d="M388.885,180.442c-0.187-0.561-0.311-0.903-0.311-2.679v-3.425c0-2.024-0.686-2.772-2.243-2.772h-1.183v8.876h-3.426v-21.8
		h5.169c3.551,0,5.077,1.65,5.077,5.014v1.713c0,2.242-0.717,3.706-2.242,4.423c1.713,0.716,2.273,2.366,2.273,4.64v3.363
		c0,1.06,0.03,1.838,0.373,2.647H388.885z M385.148,161.756v6.695h1.339c1.276,0,2.056-0.561,2.056-2.305v-2.148
		c0-1.558-0.529-2.242-1.744-2.242H385.148z"/>
	<path d="M404.175,172.314v2.896c0,3.487-1.744,5.48-5.107,5.48c-3.364,0-5.107-1.993-5.107-5.48v-11.337
		c0-3.487,1.743-5.48,5.107-5.48c3.363,0,5.107,1.993,5.107,5.48v2.118h-3.239v-2.336c0-1.557-0.685-2.148-1.775-2.148
		c-1.09,0-1.774,0.592-1.774,2.148v11.772c0,1.557,0.685,2.117,1.774,2.117c1.091,0,1.775-0.561,1.775-2.117v-3.114H404.175z"/>
	<path d="M417.346,180.442h-3.457l-0.592-3.955h-4.204l-0.592,3.955h-3.146l3.488-21.8h5.014L417.346,180.442z M409.528,173.529
		h3.302l-1.651-11.025L409.528,173.529z"/>
	<path d="M421.983,164.653v15.789H418.9v-21.8h4.298l3.519,13.049v-13.049h3.053v21.8h-3.52L421.983,164.653z"/>
	<path d="M431.946,163.873c0-3.487,1.837-5.48,5.2-5.48c3.364,0,5.201,1.993,5.201,5.48v11.337c0,3.487-1.837,5.48-5.201,5.48
		c-3.363,0-5.2-1.993-5.2-5.48V163.873z M435.372,175.428c0,1.557,0.685,2.148,1.774,2.148c1.091,0,1.775-0.592,1.775-2.148v-11.772
		c0-1.557-0.685-2.148-1.775-2.148c-1.09,0-1.774,0.592-1.774,2.148V175.428z"/>
	<path d="M449.165,158.393c3.333,0,5.046,1.993,5.046,5.48v0.686h-3.239v-0.903c0-1.557-0.623-2.148-1.713-2.148
		s-1.713,0.592-1.713,2.148c0,4.484,6.696,5.325,6.696,11.555c0,3.487-1.744,5.48-5.107,5.48c-3.364,0-5.108-1.993-5.108-5.48v-1.34
		h3.239v1.558c0,1.557,0.686,2.117,1.775,2.117s1.775-0.561,1.775-2.117c0-4.484-6.696-5.325-6.696-11.555
		C444.12,160.386,445.833,158.393,449.165,158.393z"/>
</g>
<g>
	<path d="M47.094,384.713h10.589v3.114h-3.581v18.687h-3.426v-18.687h-3.582V384.713z"/>
	<path d="M58.895,389.946c0-3.488,1.837-5.481,5.2-5.481c3.364,0,5.201,1.993,5.201,5.481v11.336c0,3.488-1.837,5.481-5.201,5.481
		c-3.363,0-5.2-1.993-5.2-5.481V389.946z M62.32,401.499c0,1.558,0.685,2.149,1.774,2.149c1.091,0,1.775-0.592,1.775-2.149v-11.771
		c0-1.558-0.685-2.149-1.775-2.149c-1.09,0-1.774,0.592-1.774,2.149V401.499z"/>
	<path d="M81.658,390.101v2.834c0,3.488-1.682,5.389-5.107,5.389h-1.619v8.19h-3.426v-21.801h5.045
		C79.977,384.713,81.658,386.613,81.658,390.101z M74.932,387.827v7.381h1.619c1.09,0,1.682-0.498,1.682-2.055v-3.271
		c0-1.557-0.592-2.056-1.682-2.056H74.932z"/>
	<path d="M10.215,422.385v2.896c0,3.488-1.744,5.481-5.107,5.481c-3.364,0-5.107-1.993-5.107-5.481v-11.336
		c0-3.488,1.743-5.481,5.107-5.481c3.363,0,5.107,1.993,5.107,5.481v2.118H6.976v-2.336c0-1.558-0.685-2.149-1.775-2.149
		c-1.09,0-1.774,0.592-1.774,2.149v11.771c0,1.558,0.685,2.118,1.774,2.118c1.091,0,1.775-0.561,1.775-2.118v-3.114H10.215z"/>
	<path d="M12.019,413.946c0-3.488,1.837-5.481,5.2-5.481c3.364,0,5.201,1.993,5.201,5.481v11.336c0,3.488-1.837,5.481-5.201,5.481
		c-3.363,0-5.2-1.993-5.2-5.481V413.946z M15.444,425.499c0,1.558,0.685,2.149,1.774,2.149c1.091,0,1.775-0.592,1.775-2.149v-11.771
		c0-1.558-0.685-2.149-1.775-2.149c-1.09,0-1.774,0.592-1.774,2.149V425.499z"/>
	<path d="M31.885,424.192l2.336-15.479h4.765v21.801h-3.238V414.88l-2.367,15.634h-3.239l-2.554-15.416v15.416h-2.989v-21.801h4.765
		L31.885,424.192z"/>
	<path d="M44.899,417.901h4.702v3.114h-4.702v6.385h5.917v3.114h-9.343v-21.801h9.343v3.114h-5.917V417.901z"/>
	<path d="M55.983,414.724v15.79H52.9v-21.801h4.298l3.519,13.049v-13.049h3.053v21.801h-3.52L55.983,414.724z"/>
	<path d="M65.23,408.713h10.589v3.114h-3.581v18.687h-3.426v-18.687H65.23V408.713z"/>
	<path d="M87.216,430.514h-3.457l-0.592-3.955h-4.204l-0.592,3.955h-3.146l3.488-21.801h5.014L87.216,430.514z M79.398,423.6H82.7
		l-1.651-11.024L79.398,423.6z"/>
	<path d="M95.964,430.514c-0.187-0.561-0.311-0.903-0.311-2.679v-3.426c0-2.024-0.686-2.771-2.243-2.771h-1.183v8.876h-3.426
		v-21.801h5.169c3.551,0,5.077,1.651,5.077,5.015v1.713c0,2.242-0.717,3.706-2.242,4.422c1.712,0.717,2.273,2.367,2.273,4.641v3.363
		c0,1.06,0.03,1.838,0.373,2.647H95.964z M92.228,411.827v6.696h1.339c1.276,0,2.056-0.561,2.056-2.305v-2.148
		c0-1.558-0.529-2.243-1.744-2.243H92.228z"/>
	<path d="M101.318,408.713h3.426v21.801h-3.426V408.713z"/>
	<path d="M106.954,413.946c0-3.488,1.837-5.481,5.2-5.481c3.364,0,5.201,1.993,5.201,5.481v11.336c0,3.488-1.837,5.481-5.201,5.481
		c-3.363,0-5.2-1.993-5.2-5.481V413.946z M110.38,425.499c0,1.558,0.685,2.149,1.774,2.149c1.091,0,1.775-0.592,1.775-2.149v-11.771
		c0-1.558-0.685-2.149-1.775-2.149c-1.09,0-1.774,0.592-1.774,2.149V425.499z"/>
	<path d="M124.173,408.464c3.333,0,5.046,1.993,5.046,5.481v0.686h-3.239v-0.903c0-1.558-0.623-2.149-1.713-2.149
		s-1.713,0.592-1.713,2.149c0,4.484,6.696,5.325,6.696,11.554c0,3.488-1.744,5.481-5.107,5.481c-3.364,0-5.108-1.993-5.108-5.481
		v-1.339h3.239v1.557c0,1.558,0.686,2.118,1.775,2.118s1.775-0.561,1.775-2.118c0-4.484-6.696-5.325-6.696-11.554
		C119.128,410.457,120.841,408.464,124.173,408.464z"/>
</g>
<g>
	<path d="M188.816,400.192l2.336-15.479h4.765v21.801h-3.238V390.88l-2.367,15.634h-3.239l-2.554-15.416v15.416h-2.989v-21.801
		h4.765L188.816,400.192z"/>
	<path d="M198.405,384.713h3.426v21.801h-3.426V384.713z"/>
	<path d="M208.93,384.464c3.333,0,5.046,1.993,5.046,5.481v0.686h-3.239v-0.903c0-1.558-0.623-2.149-1.713-2.149
		s-1.713,0.592-1.713,2.149c0,4.484,6.696,5.325,6.696,11.554c0,3.488-1.744,5.481-5.107,5.481c-3.364,0-5.108-1.993-5.108-5.481
		v-1.339h3.239v1.557c0,1.558,0.686,2.118,1.775,2.118s1.775-0.561,1.775-2.118c0-4.484-6.696-5.325-6.696-11.554
		C203.885,386.457,205.598,384.464,208.93,384.464z"/>
	<path d="M225.4,384.464c3.333,0,5.046,1.993,5.046,5.481v0.686h-3.239v-0.903c0-1.558-0.623-2.149-1.713-2.149
		s-1.713,0.592-1.713,2.149c0,4.484,6.696,5.325,6.696,11.554c0,3.488-1.744,5.481-5.107,5.481c-3.364,0-5.108-1.993-5.108-5.481
		v-1.339h3.239v1.557c0,1.558,0.686,2.118,1.775,2.118s1.775-0.561,1.775-2.118c0-4.484-6.696-5.325-6.696-11.554
		C220.355,386.457,222.068,384.464,225.4,384.464z"/>
	<path d="M243.524,406.514h-3.457l-0.592-3.955h-4.204l-0.592,3.955h-3.146l3.488-21.801h5.014L243.524,406.514z M235.707,399.6
		h3.302l-1.651-11.024L235.707,399.6z"/>
	<path d="M245.11,384.713h3.426V403.4h5.637v3.114h-9.062V384.713z"/>
	<path d="M255.385,389.946c0-3.488,1.837-5.481,5.2-5.481c3.364,0,5.201,1.993,5.201,5.481v11.336c0,3.488-1.837,5.481-5.201,5.481
		c-3.363,0-5.2-1.993-5.2-5.481V389.946z M258.811,401.499c0,1.558,0.685,2.149,1.774,2.149c1.091,0,1.775-0.592,1.775-2.149
		v-11.771c0-1.558-0.685-2.149-1.775-2.149c-1.09,0-1.774,0.592-1.774,2.149V401.499z"/>
	<path d="M271.047,390.724v15.79h-3.083v-21.801h4.298l3.519,13.049v-13.049h3.053v21.801h-3.52L271.047,390.724z"/>
	<path d="M284.717,393.901h4.702v3.114h-4.702v6.385h5.917v3.114h-9.343v-21.801h9.343v3.114h-5.917V393.901z"/>
	<path d="M297.357,384.464c3.333,0,5.046,1.993,5.046,5.481v0.686h-3.239v-0.903c0-1.558-0.623-2.149-1.713-2.149
		s-1.713,0.592-1.713,2.149c0,4.484,6.696,5.325,6.696,11.554c0,3.488-1.744,5.481-5.107,5.481c-3.364,0-5.108-1.993-5.108-5.481
		v-1.339h3.239v1.557c0,1.558,0.686,2.118,1.775,2.118s1.775-0.561,1.775-2.118c0-4.484-6.696-5.325-6.696-11.554
		C292.312,386.457,294.025,384.464,297.357,384.464z"/>
	<path d="M196.148,418.399h4.422v3.114h-4.422v9.001h-3.426v-21.801h9.062v3.114h-5.637V418.399z"/>
	<path d="M214.116,430.514h-3.457l-0.592-3.955h-4.204l-0.592,3.955h-3.146l3.488-21.801h5.014L214.116,430.514z M206.299,423.6
		h3.302l-1.651-11.024L206.299,423.6z"/>
	<path d="M220.093,426.496l2.616-17.783h3.146l-3.363,21.801h-5.107l-3.363-21.801h3.457L220.093,426.496z"/>
	<path d="M227.13,413.946c0-3.488,1.837-5.481,5.2-5.481c3.364,0,5.201,1.993,5.201,5.481v11.336c0,3.488-1.837,5.481-5.201,5.481
		c-3.363,0-5.2-1.993-5.2-5.481V413.946z M230.556,425.499c0,1.558,0.685,2.149,1.774,2.149c1.091,0,1.775-0.592,1.775-2.149
		v-11.771c0-1.558-0.685-2.149-1.775-2.149c-1.09,0-1.774,0.592-1.774,2.149V425.499z"/>
	<path d="M246.902,430.514c-0.187-0.561-0.311-0.903-0.311-2.679v-3.426c0-2.024-0.686-2.771-2.243-2.771h-1.183v8.876h-3.426
		v-21.801h5.169c3.551,0,5.077,1.651,5.077,5.015v1.713c0,2.242-0.717,3.706-2.242,4.422c1.713,0.717,2.273,2.367,2.273,4.641v3.363
		c0,1.06,0.03,1.838,0.373,2.647H246.902z M243.166,411.827v6.696h1.339c1.276,0,2.056-0.561,2.056-2.305v-2.148
		c0-1.558-0.529-2.243-1.744-2.243H243.166z"/>
	<path d="M252.257,408.713h3.426v21.801h-3.426V408.713z"/>
	<path d="M257.176,408.713h10.589v3.114h-3.581v18.687h-3.426v-18.687h-3.582V408.713z"/>
	<path d="M268.977,413.946c0-3.488,1.837-5.481,5.2-5.481c3.364,0,5.201,1.993,5.201,5.481v11.336c0,3.488-1.837,5.481-5.201,5.481
		c-3.363,0-5.2-1.993-5.2-5.481V413.946z M272.402,425.499c0,1.558,0.685,2.149,1.774,2.149c1.091,0,1.775-0.592,1.775-2.149
		v-11.771c0-1.558-0.685-2.149-1.775-2.149c-1.09,0-1.774,0.592-1.774,2.149V425.499z"/>
	<path d="M286.195,408.464c3.333,0,5.046,1.993,5.046,5.481v0.686h-3.239v-0.903c0-1.558-0.623-2.149-1.713-2.149
		s-1.713,0.592-1.713,2.149c0,4.484,6.696,5.325,6.696,11.554c0,3.488-1.744,5.481-5.107,5.481c-3.364,0-5.108-1.993-5.108-5.481
		v-1.339h3.239v1.557c0,1.558,0.686,2.118,1.775,2.118s1.775-0.561,1.775-2.118c0-4.484-6.696-5.325-6.696-11.554
		C281.15,410.457,282.863,408.464,286.195,408.464z"/>
</g>
<g>
	<path d="M364.038,406.514h-3.426v-21.801h3.426v9.344h3.893v-9.344h3.488v21.801h-3.488v-9.343h-3.893V406.514z"/>
	<path d="M373.627,389.946c0-3.488,1.837-5.481,5.2-5.481c3.364,0,5.201,1.993,5.201,5.481v11.336c0,3.488-1.837,5.481-5.201,5.481
		c-3.363,0-5.2-1.993-5.2-5.481V389.946z M377.053,401.499c0,1.558,0.685,2.149,1.774,2.149c1.091,0,1.775-0.592,1.775-2.149
		v-11.771c0-1.558-0.685-2.149-1.775-2.149c-1.09,0-1.774,0.592-1.774,2.149V401.499z"/>
	<path d="M393.399,406.514c-0.187-0.561-0.311-0.903-0.311-2.679v-3.426c0-2.024-0.686-2.771-2.243-2.771h-1.183v8.876h-3.426
		v-21.801h5.169c3.551,0,5.077,1.651,5.077,5.015v1.713c0,2.242-0.717,3.706-2.242,4.422c1.712,0.717,2.273,2.367,2.273,4.641v3.363
		c0,1.059,0.03,1.838,0.373,2.647H393.399z M389.663,387.827v6.696h1.339c1.276,0,2.056-0.561,2.056-2.305v-2.148
		c0-1.558-0.529-2.243-1.744-2.243H389.663z"/>
	<path d="M409.842,406.514h-3.457l-0.592-3.955h-4.204l-0.592,3.955h-3.146l3.488-21.801h5.014L409.842,406.514z M402.024,399.6
		h3.302l-1.651-11.024L402.024,399.6z"/>
	<path d="M418.59,406.514c-0.187-0.561-0.311-0.903-0.311-2.679v-3.426c0-2.024-0.686-2.771-2.243-2.771h-1.183v8.876h-3.426
		v-21.801h5.169c3.551,0,5.077,1.651,5.077,5.015v1.713c0,2.242-0.717,3.706-2.242,4.422c1.713,0.717,2.273,2.367,2.273,4.641v3.363
		c0,1.059,0.03,1.838,0.373,2.647H418.59z M414.854,387.827v6.696h1.339c1.276,0,2.056-0.561,2.056-2.305v-2.148
		c0-1.558-0.529-2.243-1.744-2.243H414.854z"/>
	<path d="M423.944,384.713h3.426v21.801h-3.426V384.713z"/>
	<path d="M429.58,389.946c0-3.488,1.837-5.481,5.2-5.481c3.364,0,5.201,1.993,5.201,5.481v11.336c0,3.488-1.837,5.481-5.201,5.481
		c-3.363,0-5.2-1.993-5.2-5.481V389.946z M433.006,401.499c0,1.558,0.685,2.149,1.774,2.149c1.091,0,1.775-0.592,1.775-2.149
		v-11.771c0-1.558-0.685-2.149-1.775-2.149c-1.09,0-1.774,0.592-1.774,2.149V401.499z"/>
	<path d="M446.799,384.464c3.333,0,5.046,1.993,5.046,5.481v0.686h-3.239v-0.903c0-1.558-0.623-2.149-1.713-2.149
		s-1.713,0.592-1.713,2.149c0,4.484,6.696,5.325,6.696,11.554c0,3.488-1.744,5.481-5.107,5.481c-3.364,0-5.108-1.993-5.108-5.481
		v-1.339h3.239v1.557c0,1.558,0.686,2.118,1.775,2.118s1.775-0.561,1.775-2.118c0-4.484-6.696-5.325-6.696-11.554
		C441.754,386.457,443.467,384.464,446.799,384.464z"/>
</g>
</svg>