<!-- Generator: Adobe Illustrator 19.2.0, SVG Export Plug-In  -->
<svg version="1.1"
	 xmlns="http://www.w3.org/2000/svg" xmlns:xlink="http://www.w3.org/1999/xlink" xmlns:a="http://ns.adobe.com/AdobeSVGViewerExtensions/3.0/"
	 x="0px" y="0px" width="85.563px" height="118.524px" viewBox="0 0 85.563 118.524"
	 style="enable-background:new 0 0 85.563 118.524;" xml:space="preserve">
<style type="text/css">
	.st0{fill:#FFFFFF;}
	.st1{opacity:0.39;fill:#FFFFFF;}
</style>
<defs>
</defs>
<g>
	<path class="st0" d="M19.108,16.54l-0.099,0.087C21.739,11.364,26.133,5.88,32.813,0C25.8,28.628,61.661,44.057,61.661,77.075
		c0.001,27.654-35.661,38.633-40.581,40.016C86.053,58.577-3.811,63.855,19.108,16.54z"/>
</g>
<g>
	<g>
		<path class="st0" d="M6.7,55.245c-0.43,6.418-7.166,14.056-6.674,15.814c0.579,2.065,4.594,1.486,4.409,3.452
			c-0.186,1.967-1.316,2.372-1.459,3.447c-0.177,1.33,2.149,2.027,2.149,2.027s-1.57,0.583-1.647,1.639
			c-0.101,1.378,2.499,1.477,2.206,3.943c-1.859,15.672,30.699-9.743,12.937,31.182c0,0,23.391-15.801,19.36-40.664
			C34.975,57.541,8.803,52.97,14.083,26.568C0.305,38.696,7.112,49.092,6.7,55.245z"/>
	</g>
</g>
<path class="st1" d="M5.684,85.567c0.293-2.466-2.307-2.565-2.206-3.943c0.077-1.056,1.647-1.639,1.647-1.639
	s-2.326-0.697-2.149-2.027c0.143-1.076,1.273-1.481,1.459-3.447c0.185-1.966-3.83-1.387-4.409-3.452
	c-0.351-1.256,2.988-5.517,5.08-10.188c9.848,4.454,22.337,12.712,32.644,27.906c-3.514,17.422-19.128,27.973-19.128,27.973
	C36.383,75.825,3.825,101.24,5.684,85.567z"/>
<path class="st1" d="M10.953,29.677c0.902-1.022,1.938-2.059,3.131-3.109C8.803,52.97,34.975,57.541,37.981,76.085
	c1.388,8.564-0.476,16.052-3.519,22.191C20.87,78.06,8.757,48.976,10.953,29.677z"/>
<path class="st1" d="M21.081,117.091c4.215-3.797,7.778-7.324,10.763-10.615c21-13.35,22.083-34.767,11.415-50.948
	c-7.442-11.288-7.55-21.891-5.804-29.662c8.61,15.307,24.207,29.433,24.208,51.209C61.662,104.729,26.001,115.708,21.081,117.091z"
	/>
<g>
	<path class="st0" d="M19.009,16.627C21.739,11.364,26.133,5.88,32.813,0C25.8,28.628,61.661,44.057,61.661,77.075
		c0,0.837-0.034,1.658-0.098,2.465C45.475,43.539,16.639,39.245,16.639,39.245c-2.184-6.123-2.04-13.396,2.469-22.705L19.009,16.627
		z"/>
</g>
<g>
	<path class="st0" d="M85.563,81.711c-8.401,5.008-11.608,10.509-19.173,22.091c-13.068,20.006-42.159,14.095-45.309,13.292
		C59.311,114.882,37.144,79.887,85.563,81.711z"/>
</g>
<path class="st1" d="M40.348,110.485c10.918-7.678,23.65-13.949,33.912-18.386c-2.328,3.117-4.721,6.881-7.87,11.703
	c-8.964,13.722-25.465,15.251-35.964,14.599c2.114-1.945,4.393-3.825,6.788-5.633C38.368,112.067,39.405,111.302,40.348,110.485z"/>
</svg>