<!-- Generator: Adobe Illustrator 19.2.0, SVG Export Plug-In  -->
<svg version="1.1"
	 xmlns="http://www.w3.org/2000/svg" xmlns:xlink="http://www.w3.org/1999/xlink" xmlns:a="http://ns.adobe.com/AdobeSVGViewerExtensions/3.0/"
	 x="0px" y="0px" width="194.884px" height="356.52px" viewBox="0 0 194.884 356.52"
	 style="enable-background:new 0 0 194.884 356.52;" xml:space="preserve">
<style type="text/css">
	.st0{fill:url(#SVGID_1_);}
	.st1{fill:#FFFFFF;}
	.st2{fill:url(#SVGID_2_);}
	.st3{fill:url(#SVGID_3_);}
	.st4{fill:url(#SVGID_4_);}
	.st5{fill:url(#SVGID_5_);}
	.st6{fill:url(#SVGID_6_);}
	.st7{fill:url(#SVGID_7_);}
	.st8{fill:url(#SVGID_8_);}
	.st9{fill:url(#SVGID_9_);}
	.st10{fill:url(#SVGID_10_);}
	.st11{fill:url(#SVGID_11_);}
	.st12{fill:url(#SVGID_12_);}
	.st13{fill:url(#SVGID_13_);}
	.st14{fill:url(#SVGID_14_);}
	.st15{fill:url(#SVGID_15_);}
	.st16{fill:url(#SVGID_16_);}
	.st17{fill:url(#SVGID_17_);}
	.st18{fill:url(#SVGID_18_);}
	.st19{fill:url(#SVGID_19_);}
	.st20{fill:url(#SVGID_20_);}
	.st21{fill:url(#SVGID_21_);}
	.st22{fill:url(#SVGID_22_);}
	.st23{fill:url(#SVGID_23_);}
	.st24{fill:url(#SVGID_24_);}
</style>
<defs>
</defs>
<g>
	<linearGradient id="SVGID_1_" gradientUnits="userSpaceOnUse" x1="2.3895" y1="38.0886" x2="78.5668" y2="38.0886">
		<stop  offset="0" style="stop-color:#F062A4"/>
		<stop  offset="0.114" style="stop-color:#DC6AAB"/>
		<stop  offset="0.3474" style="stop-color:#A97FBB"/>
		<stop  offset="0.6757" style="stop-color:#579FD6"/>
		<stop  offset="1" style="stop-color:#00C2F3"/>
	</linearGradient>
	<circle class="st0" cx="40.478" cy="38.089" r="38.089"/>
	<path class="st1" d="M48.397,29.543c-1.098-1.308-1.965-2.341-2.941-3.504c-1.573,1.058-3.118,2.125-4.69,3.15
		c-5.351,3.488-11.067,6.123-17.364,7.396c-1.934,0.391-3.354-0.328-3.687-1.915c-0.31-1.475,0.637-2.726,2.546-3.128
		c7.365-1.547,13.705-5.193,19.858-9.563c-0.943-1.159-1.849-2.273-2.943-3.617c4.851-0.815,9.446-1.587,14.298-2.403
		C51.762,20.54,50.13,24.905,48.397,29.543z"/>
	<path class="st1" d="M61.293,43.288c0,3.625,0.01,7.25-0.003,10.875c-0.009,2.526-0.905,3.416-3.414,3.44
		c-0.541,0.005-1.084,0.024-1.623-0.011c-1.727-0.112-2.738-1.044-2.746-2.781c-0.038-7.683-0.038-15.366,0-23.048
		c0.009-1.737,1.019-2.672,2.747-2.78c0.647-0.04,1.299-0.027,1.947-0.009c2.097,0.057,3.068,1.003,3.084,3.113
		C61.313,35.822,61.292,39.555,61.293,43.288z"/>
	<path class="st1" d="M50.88,45.981c0,2.812,0.02,5.625-0.006,8.437c-0.021,2.213-0.966,3.139-3.176,3.184
		c-0.649,0.013-1.301,0.034-1.946-0.015c-1.635-0.123-2.64-1.052-2.653-2.7c-0.047-6.003-0.048-12.006,0.001-18.009
		c0.013-1.642,1.029-2.568,2.669-2.684c0.7-0.049,1.406-0.035,2.108-0.011c2,0.068,2.968,1.017,2.993,3.037
		C50.906,40.14,50.88,43.06,50.88,45.981z"/>
	<path class="st1" d="M32.662,48.422c-0.001-2-0.03-4,0.007-5.999c0.037-2.017,0.995-2.965,2.995-3.033
		c0.702-0.024,1.408-0.038,2.107,0.011c1.639,0.116,2.647,1.042,2.669,2.681c0.057,4.269,0.056,8.54,0.001,12.809
		c-0.021,1.645-1.02,2.58-2.653,2.696c-0.753,0.054-1.514,0.045-2.269,0.009c-1.818-0.087-2.797-1.03-2.843-2.85
		C32.622,52.638,32.663,50.53,32.662,48.422z"/>
	<path class="st1" d="M22.254,50.994c-0.002-1.188-0.042-2.378,0.007-3.563c0.075-1.809,1.039-2.746,2.861-2.832
		c0.7-0.033,1.405-0.035,2.105,0.002c1.749,0.092,2.758,1.002,2.803,2.714c0.068,2.536,0.069,5.077-0.003,7.613
		c-0.046,1.633-1.04,2.556-2.684,2.661c-0.807,0.052-1.623,0.055-2.428-0.002c-1.628-0.115-2.566-1.055-2.647-2.704
		C22.205,53.588,22.256,52.29,22.254,50.994z"/>
</g>
<g>
	<linearGradient id="SVGID_2_" gradientUnits="userSpaceOnUse" x1="113.6771" y1="38.0886" x2="189.8544" y2="38.0886">
		<stop  offset="0" style="stop-color:#F062A4"/>
		<stop  offset="0.114" style="stop-color:#DC6AAB"/>
		<stop  offset="0.3474" style="stop-color:#A97FBB"/>
		<stop  offset="0.6757" style="stop-color:#579FD6"/>
		<stop  offset="1" style="stop-color:#00C2F3"/>
	</linearGradient>
	<circle class="st2" cx="151.766" cy="38.089" r="38.089"/>
	<path class="st1" d="M175.42,24.127v27.895c0,2.424-1.95,4.596-4.373,4.596h-38.513c-2.424,0-4.395-2.172-4.395-4.596V24.127
		c0-2.424,1.972-4.164,4.395-4.164h4.229v2.528c0,1.733,1.35,3.149,3.08,3.149c1.73,0,3.08-1.416,3.08-3.149v-2.528h17.711v2.528
		c0,1.733,1.349,3.149,3.082,3.149c1.73,0,3.079-1.416,3.079-3.149v-2.528h4.251C173.471,19.963,175.42,21.704,175.42,24.127z"/>
	<linearGradient id="SVGID_3_" gradientUnits="userSpaceOnUse" x1="131.8295" y1="42.5578" x2="171.7521" y2="42.5578">
		<stop  offset="0" style="stop-color:#F062A4"/>
		<stop  offset="0.114" style="stop-color:#DC6AAB"/>
		<stop  offset="0.3474" style="stop-color:#A97FBB"/>
		<stop  offset="0.6757" style="stop-color:#579FD6"/>
		<stop  offset="1" style="stop-color:#00C2F3"/>
	</linearGradient>
	<rect x="131.83" y="32.624" class="st3" width="39.923" height="19.867"/>
	<g>
		<rect x="134.608" y="35.668" class="st1" width="5.911" height="5.911"/>
		<rect x="144.093" y="35.668" class="st1" width="5.911" height="5.911"/>
		<rect x="153.578" y="35.668" class="st1" width="5.911" height="5.911"/>
		<rect x="163.063" y="35.668" class="st1" width="5.911" height="5.911"/>
	</g>
	<g>
		<rect x="134.608" y="44.021" class="st1" width="5.911" height="5.911"/>
		<rect x="144.093" y="44.021" class="st1" width="5.911" height="5.911"/>
		<rect x="153.578" y="44.021" class="st1" width="5.911" height="5.911"/>
		<rect x="163.063" y="44.021" class="st1" width="5.911" height="5.911"/>
	</g>
	<path class="st1" d="M141.157,24.151h-2.627c-0.258,0-0.469-0.211-0.469-0.469V17.7c0-0.258,0.211-0.469,0.469-0.469h2.627
		c0.258,0,0.469,0.211,0.469,0.469v5.982C141.626,23.94,141.415,24.151,141.157,24.151z"/>
	<path class="st1" d="M164.972,24.151h-2.627c-0.258,0-0.469-0.211-0.469-0.469V17.7c0-0.258,0.211-0.469,0.469-0.469h2.627
		c0.258,0,0.469,0.211,0.469,0.469v5.982C165.441,23.94,165.23,24.151,164.972,24.151z"/>
</g>
<g>
	<linearGradient id="SVGID_4_" gradientUnits="userSpaceOnUse" x1="2.3895" y1="158.239" x2="78.5668" y2="158.239">
		<stop  offset="0" style="stop-color:#F062A4"/>
		<stop  offset="0.114" style="stop-color:#DC6AAB"/>
		<stop  offset="0.3474" style="stop-color:#A97FBB"/>
		<stop  offset="0.6757" style="stop-color:#579FD6"/>
		<stop  offset="1" style="stop-color:#00C2F3"/>
	</linearGradient>
	<circle class="st4" cx="40.478" cy="158.239" r="38.089"/>
	<path class="st1" d="M19.391,156.803c0-9.13,9.442-16.531,21.088-16.531c11.646,0,21.088,7.4,21.088,16.531
		c0,8.331-7.862,15.221-18.084,16.363l4.709,8.317l-9.018-8.183C28.136,172.772,19.391,165.591,19.391,156.803z"/>
	<linearGradient id="SVGID_5_" gradientUnits="userSpaceOnUse" x1="45.9768" y1="156.6949" x2="50.8836" y2="156.6949">
		<stop  offset="0" style="stop-color:#F062A4"/>
		<stop  offset="0.114" style="stop-color:#DC6AAB"/>
		<stop  offset="0.3474" style="stop-color:#A97FBB"/>
		<stop  offset="0.6757" style="stop-color:#579FD6"/>
		<stop  offset="1" style="stop-color:#00C2F3"/>
	</linearGradient>
	<circle class="st5" cx="48.43" cy="156.695" r="2.453"/>
	<linearGradient id="SVGID_6_" gradientUnits="userSpaceOnUse" x1="38.0247" y1="156.6949" x2="42.9316" y2="156.6949">
		<stop  offset="0" style="stop-color:#F062A4"/>
		<stop  offset="0.114" style="stop-color:#DC6AAB"/>
		<stop  offset="0.3474" style="stop-color:#A97FBB"/>
		<stop  offset="0.6757" style="stop-color:#579FD6"/>
		<stop  offset="1" style="stop-color:#00C2F3"/>
	</linearGradient>
	<circle class="st6" cx="40.478" cy="156.695" r="2.453"/>
	<linearGradient id="SVGID_7_" gradientUnits="userSpaceOnUse" x1="30.0727" y1="156.6949" x2="34.9796" y2="156.6949">
		<stop  offset="0" style="stop-color:#F062A4"/>
		<stop  offset="0.114" style="stop-color:#DC6AAB"/>
		<stop  offset="0.3474" style="stop-color:#A97FBB"/>
		<stop  offset="0.6757" style="stop-color:#579FD6"/>
		<stop  offset="1" style="stop-color:#00C2F3"/>
	</linearGradient>
	<circle class="st7" cx="32.526" cy="156.695" r="2.453"/>
</g>
<g>
	<linearGradient id="SVGID_8_" gradientUnits="userSpaceOnUse" x1="108.6471" y1="281.9666" x2="184.8244" y2="281.9666">
		<stop  offset="0" style="stop-color:#F062A4"/>
		<stop  offset="0.114" style="stop-color:#DC6AAB"/>
		<stop  offset="0.3474" style="stop-color:#A97FBB"/>
		<stop  offset="0.6757" style="stop-color:#579FD6"/>
		<stop  offset="1" style="stop-color:#00C2F3"/>
	</linearGradient>
	<circle class="st8" cx="146.736" cy="281.967" r="38.089"/>
	<path class="st1" d="M165.231,279.451c0,10.215-18.495,26.999-18.495,26.999s-18.495-16.785-18.495-26.999
		s8.281-18.495,18.495-18.495S165.231,269.237,165.231,279.451z"/>
	<linearGradient id="SVGID_9_" gradientUnits="userSpaceOnUse" x1="133.5015" y1="278.7081" x2="159.97" y2="278.7081">
		<stop  offset="0" style="stop-color:#F062A4"/>
		<stop  offset="0.114" style="stop-color:#DC6AAB"/>
		<stop  offset="0.3474" style="stop-color:#A97FBB"/>
		<stop  offset="0.6757" style="stop-color:#579FD6"/>
		<stop  offset="1" style="stop-color:#00C2F3"/>
	</linearGradient>
	<circle class="st9" cx="146.736" cy="278.708" r="13.234"/>
	<rect x="194.3" y="296.626" class="st1" width="0.585" height="0.772"/>
</g>
<g>
	<linearGradient id="SVGID_10_" gradientUnits="userSpaceOnUse" x1="2.3895" y1="283.7144" x2="78.5668" y2="283.7144">
		<stop  offset="0" style="stop-color:#F062A4"/>
		<stop  offset="0.114" style="stop-color:#DC6AAB"/>
		<stop  offset="0.3474" style="stop-color:#A97FBB"/>
		<stop  offset="0.6757" style="stop-color:#579FD6"/>
		<stop  offset="1" style="stop-color:#00C2F3"/>
	</linearGradient>
	<circle class="st10" cx="40.478" cy="283.714" r="38.089"/>
	<circle class="st1" cx="40.61" cy="283.942" r="22.843"/>
	<linearGradient id="SVGID_11_" gradientUnits="userSpaceOnUse" x1="22.5002" y1="283.9419" x2="58.7204" y2="283.9419">
		<stop  offset="0" style="stop-color:#F062A4"/>
		<stop  offset="0.114" style="stop-color:#DC6AAB"/>
		<stop  offset="0.3474" style="stop-color:#A97FBB"/>
		<stop  offset="0.6757" style="stop-color:#579FD6"/>
		<stop  offset="1" style="stop-color:#00C2F3"/>
	</linearGradient>
	<circle class="st11" cx="40.61" cy="283.942" r="18.11"/>
	<polygon class="st1" points="42.596,283.942 52.434,274.403 41.015,282.093 	"/>
	<polygon class="st1" points="38.508,284.344 32.418,279.232 39.874,282.274 	"/>
	
		<rect x="45.705" y="283.29" transform="matrix(0.6992 -0.7149 0.7149 0.6992 -193.2119 119.8886)" class="st1" width="0.327" height="12.53"/>
	<rect x="40.375" y="265.832" class="st1" width="0.736" height="1.853"/>
	
		<rect x="49" y="268.047" transform="matrix(0.8656 0.5007 -0.5007 0.8656 141.1494 11.4924)" class="st1" width="0.334" height="1.267"/>
	
		<rect x="55.489" y="274.384" transform="matrix(0.4985 0.8669 -0.8669 0.4985 266.3233 89.6756)" class="st1" width="0.334" height="1.267"/>
	
		<rect x="55.668" y="291.896" transform="matrix(-0.503 0.8643 -0.8643 -0.503 336.751 391.4087)" class="st1" width="0.334" height="1.267"/>
	
		<rect x="49.325" y="298.37" transform="matrix(-0.8682 0.4963 -0.4963 -0.8682 240.8498 534.0236)" class="st1" width="0.334" height="1.267"/>
	
		<rect x="31.809" y="298.524" transform="matrix(-0.863 -0.5052 0.5052 -0.863 -91.5564 573.4893)" class="st1" width="0.334" height="1.267"/>
	
		<rect x="25.356" y="292.152" transform="matrix(-0.494 -0.8695 0.8695 -0.494 -216.4343 459.6151)" class="st1" width="0.334" height="1.267"/>
	
		<rect x="25.255" y="274.638" transform="matrix(0.5074 -0.8617 0.8617 0.5074 -224.6756 157.4925)" class="st1" width="0.334" height="1.267"/>
	
		<rect x="31.643" y="268.207" transform="matrix(0.8707 -0.4918 0.4918 0.8707 -128.1019 50.4024)" class="st1" width="0.334" height="1.267"/>
	<rect x="40.375" y="300.199" class="st1" width="0.736" height="1.853"/>
	
		<rect x="57.426" y="283.015" transform="matrix(-1.836970e-16 1 -1 -1.836970e-16 341.7357 226.1481)" class="st1" width="0.736" height="1.853"/>
	
		<rect x="23.059" y="283.015" transform="matrix(-1.836970e-16 1 -1 -1.836970e-16 307.3687 260.5151)" class="st1" width="0.736" height="1.853"/>
	<circle class="st1" cx="40.61" cy="283.942" r="2.085"/>
	<circle class="st1" cx="40.61" cy="283.942" r="1.404"/>
</g>
<g>
	<linearGradient id="SVGID_12_" gradientUnits="userSpaceOnUse" x1="113.6771" y1="158.239" x2="189.8544" y2="158.239">
		<stop  offset="0" style="stop-color:#F062A4"/>
		<stop  offset="0.114" style="stop-color:#DC6AAB"/>
		<stop  offset="0.3474" style="stop-color:#A97FBB"/>
		<stop  offset="0.6757" style="stop-color:#579FD6"/>
		<stop  offset="1" style="stop-color:#00C2F3"/>
	</linearGradient>
	<circle class="st12" cx="151.766" cy="158.239" r="38.089"/>
	<path class="st1" d="M172.025,157.239c-0.242,0.149-0.491,0.278-0.768,0.353c-0.304,0.083-0.38,0.564-0.132,0.794
		c0.418,0.39,0.651,0.884,0.752,1.435c0.187,1.008-0.202,1.813-0.943,2.473c-0.304,0.269-0.648,0.482-1.023,0.643
		c-0.391,0.168-0.472,0.693-0.15,0.968c0.737,0.63,0.95,1.517,0.564,2.463c-0.314,0.768-0.816,1.384-1.554,1.787
		c-0.098,0.053-0.205,0.095-0.31,0.13c-0.262,0.085-0.366,0.205-0.388,0.478c-0.015,0.202,0.043,0.369,0.206,0.51
		c0.402,0.348,0.69,0.771,0.76,1.312c0.053,0.413-0.03,0.806-0.207,1.181c-0.267,0.567-0.671,1.024-1.142,1.426
		c-0.219,0.187-0.797,0.478-1.242,0.671c-0.246,0.107-0.995,0.264-1.216,0.309c-10.911,2.217-18.575-0.654-19.551-1.008
		c-0.205-0.074-0.885-0.515-1.069-0.516c-0.032,0-0.26-0.056-0.26-0.085v-16.338c0.407-0.286,0.813-0.573,1.221-0.859
		c0.041-0.028,0.075-0.06,0.108-0.095c0.013-0.013,0.024-0.027,0.036-0.042c2.167-2.725,3.559-5.62,5.174-8.703
		c1.079-2.06,1.351-6.457,1.341-8.114c-0.004-0.663,0.497-1.749,1.795-1.749c0.328,0.006,1.011,0.025,1.424,0.177
		c0.49,0.18,0.907,0.818,1.325,1.638c0.57,1.117,0.93,2.326,1.268,3.538c0.127,0.455,0.234,0.916,0.302,1.383
		c0.05,0.341,0.051,0.688,0.027,1.031c-0.027,0.394-0.05,0.787-0.088,1.179c-0.076,0.773-0.186,1.54-0.317,2.304
		c-0.141,0.829-0.299,1.654-0.468,2.477c-0.002,0.009-0.004,0.019-0.006,0.029c-0.001,0.06-0.011,0.128-0.03,0.203
		c-0.268,1.058,0.809,1.679,1.446,1.947c0.169,0.071,0.866,0.156,1.058,0.156c3.489-0.002,9.339-0.02,10.046-0.018
		c0.471,0.001,0.945-0.01,1.416,0.014c0.777,0.041,1.627,0.538,1.877,1.573C173.577,155.4,173.051,156.602,172.025,157.239z"/>
	<path class="st1" d="M134.681,175.79h8.207c0.806,0,1.465-0.659,1.465-1.465v-19.054c0-0.806-0.659-1.465-1.465-1.465h-8.207
		c-0.806,0-1.465,0.659-1.465,1.465v19.054C133.216,175.13,133.876,175.79,134.681,175.79z"/>
	<path class="st1" d="M134.681,175.79h8.207c0.806,0,1.465-0.659,1.465-1.465v-9.672h-11.137v9.672
		C133.216,175.13,133.876,175.79,134.681,175.79z"/>
</g>
<g>
	<path d="M7.109,84.334h6.632v1.951h-2.243v11.704H9.352V86.284H7.109V84.334z"/>
	<path d="M14.5,87.61c0-2.184,1.151-3.433,3.257-3.433c2.107,0,3.258,1.248,3.258,3.433v7.101c0,2.184-1.151,3.433-3.258,3.433
		c-2.107,0-3.257-1.248-3.257-3.433V87.61z M16.646,94.848c0,0.975,0.429,1.346,1.111,1.346c0.683,0,1.112-0.371,1.112-1.346v-7.374
		c0-0.975-0.429-1.346-1.112-1.346c-0.683,0-1.111,0.371-1.111,1.346V94.848z"/>
	<path d="M28.758,87.708v1.775c0,2.185-1.053,3.375-3.199,3.375h-1.014v5.13h-2.146V84.334h3.16
		C27.705,84.334,28.758,85.523,28.758,87.708z M24.545,86.284v4.623h1.014c0.683,0,1.053-0.312,1.053-1.288v-2.048
		c0-0.976-0.371-1.288-1.053-1.288H24.545z"/>
	<path d="M37.358,97.988c-0.117-0.351-0.195-0.566-0.195-1.677v-2.146c0-1.268-0.429-1.737-1.405-1.737h-0.741v5.56h-2.146V84.334
		h3.238c2.224,0,3.18,1.034,3.18,3.14v1.073c0,1.404-0.449,2.321-1.404,2.77c1.073,0.448,1.424,1.482,1.424,2.906v2.107
		c0,0.663,0.019,1.151,0.234,1.658H37.358z M35.017,86.284v4.194h0.839c0.799,0,1.288-0.351,1.288-1.444v-1.346
		c0-0.976-0.332-1.404-1.092-1.404H35.017z"/>
	<path d="M47.656,97.988h-2.165l-0.371-2.477h-2.633l-0.371,2.477h-1.97l2.185-13.654h3.14L47.656,97.988z M42.759,93.658h2.068
		l-1.034-6.906L42.759,93.658z"/>
	<path d="M48.025,84.334h6.632v1.951h-2.243v11.704h-2.146V86.284h-2.244V84.334z"/>
	<path d="M55.592,84.334h2.146v13.654h-2.146V84.334z"/>
	<path d="M61.209,88.098v9.89h-1.931V84.334h2.692l2.204,8.173v-8.173h1.912v13.654h-2.204L61.209,88.098z"/>
	<path d="M70.844,90.381h3.004v4.331c0,2.184-1.092,3.433-3.199,3.433c-2.107,0-3.199-1.248-3.199-3.433V87.61
		c0-2.184,1.092-3.433,3.199-3.433c2.107,0,3.199,1.248,3.199,3.433v1.327h-2.029v-1.463c0-0.975-0.429-1.346-1.112-1.346
		c-0.683,0-1.111,0.371-1.111,1.346v7.374c0,0.975,0.429,1.326,1.111,1.326c0.683,0,1.112-0.351,1.112-1.326v-2.516h-0.975V90.381z"
		/>
</g>
<g>
	<path d="M121.488,97.988h-2.146V84.334h2.146v5.852h2.438v-5.852h2.185v13.654h-2.185v-5.852h-2.438V97.988z"/>
	<path d="M134.614,97.988h-2.165l-0.371-2.477h-2.633l-0.371,2.477h-1.97l2.185-13.654h3.14L134.614,97.988z M129.717,93.658h2.068
		l-1.034-6.906L129.717,93.658z"/>
	<path d="M141.811,92.897v1.814c0,2.184-1.092,3.433-3.199,3.433c-2.107,0-3.199-1.248-3.199-3.433V87.61
		c0-2.184,1.092-3.433,3.199-3.433c2.107,0,3.199,1.248,3.199,3.433v1.327h-2.029v-1.463c0-0.975-0.429-1.346-1.112-1.346
		c-0.683,0-1.111,0.371-1.111,1.346v7.374c0,0.975,0.429,1.326,1.111,1.326c0.683,0,1.112-0.351,1.112-1.326v-1.951H141.811z"/>
	<path d="M145.262,90.088h2.945v1.951h-2.945v3.999h3.706v1.951h-5.852V84.334h5.852v1.951h-3.706V90.088z"/>
	<path d="M154.779,97.988c-0.117-0.351-0.195-0.566-0.195-1.677v-2.146c0-1.268-0.429-1.737-1.405-1.737h-0.741v5.56h-2.146V84.334
		h3.238c2.224,0,3.18,1.034,3.18,3.14v1.073c0,1.404-0.449,2.321-1.404,2.77c1.072,0.448,1.424,1.482,1.424,2.906v2.107
		c0,0.663,0.019,1.151,0.234,1.658H154.779z M152.439,86.284v4.194h0.839c0.799,0,1.288-0.351,1.288-1.444v-1.346
		c0-0.976-0.332-1.404-1.092-1.404H152.439z"/>
	<path d="M163.203,84.334v10.534c0,0.975,0.429,1.326,1.112,1.326c0.683,0,1.112-0.351,1.112-1.326V84.334h2.028v10.397
		c0,2.184-1.092,3.433-3.199,3.433c-2.107,0-3.199-1.248-3.199-3.433V84.334H163.203z"/>
	<path d="M170.829,88.098v9.89h-1.931V84.334h2.692l2.204,8.173v-8.173h1.912v13.654h-2.204L170.829,88.098z"/>
	<path d="M184.189,97.988h-2.165l-0.371-2.477h-2.633l-0.371,2.477h-1.97l2.185-13.654h3.14L184.189,97.988z M179.293,93.658h2.068
		l-1.034-6.906L179.293,93.658z"/>
	<path d="M145.799,107.929v1.814c0,2.184-1.092,3.433-3.199,3.433c-2.107,0-3.199-1.248-3.199-3.433v-7.101
		c0-2.184,1.092-3.433,3.199-3.433c2.107,0,3.199,1.248,3.199,3.433v1.327h-2.029v-1.463c0-0.975-0.429-1.346-1.112-1.346
		c-0.683,0-1.111,0.371-1.111,1.346v7.374c0,0.975,0.429,1.326,1.111,1.326c0.683,0,1.112-0.351,1.112-1.326v-1.951H145.799z"/>
	<path d="M147.104,99.366h2.146v13.654h-2.146V99.366z"/>
	<path d="M150.185,99.366h6.632v1.951h-2.243v11.704h-2.146v-11.704h-2.244V99.366z"/>
	<path d="M163.956,113.02h-2.165l-0.371-2.477h-2.633l-0.371,2.477h-1.97l2.185-13.654h3.14L163.956,113.02z M159.059,108.69h2.068
		l-1.034-6.906L159.059,108.69z"/>
</g>
<g>
	<path d="M129.171,327.521c2.088,0,3.161,1.248,3.161,3.433v0.429h-2.029v-0.566c0-0.975-0.39-1.346-1.073-1.346
		s-1.073,0.371-1.073,1.346c0,2.809,4.194,3.335,4.194,7.237c0,2.184-1.092,3.433-3.199,3.433c-2.107,0-3.2-1.248-3.2-3.433v-0.839
		h2.029v0.976c0,0.975,0.429,1.326,1.112,1.326s1.112-0.351,1.112-1.326c0-2.809-4.194-3.335-4.194-7.237
		C126.012,328.769,127.084,327.521,129.171,327.521z"/>
	<path d="M140.523,341.331h-2.165l-0.371-2.477h-2.633l-0.371,2.477h-1.97l2.185-13.654h3.14L140.523,341.331z M135.627,337.001
		h2.068l-1.034-6.906L135.627,337.001z"/>
	<path d="M141.516,327.677h2.146v11.704h3.531v1.951h-5.676V327.677z"/>
	<path d="M147.952,330.953c0-2.184,1.151-3.433,3.257-3.433c2.107,0,3.258,1.248,3.258,3.433v7.101c0,2.184-1.151,3.433-3.258,3.433
		c-2.107,0-3.257-1.248-3.257-3.433V330.953z M150.098,338.191c0,0.975,0.429,1.346,1.111,1.346c0.683,0,1.112-0.371,1.112-1.346
		v-7.374c0-0.975-0.429-1.346-1.112-1.346c-0.683,0-1.111,0.371-1.111,1.346V338.191z"/>
	<path d="M157.762,331.442v9.89h-1.931v-13.654h2.692l2.204,8.173v-8.173h1.912v13.654h-2.204L157.762,331.442z"/>
	<path d="M166.324,333.431h2.945v1.951h-2.945v3.999h3.706v1.951h-5.852v-13.654h5.852v1.951h-3.706V333.431z"/>
	<path d="M174.242,327.521c2.088,0,3.161,1.248,3.161,3.433v0.429h-2.029v-0.566c0-0.975-0.39-1.346-1.073-1.346
		c-0.683,0-1.073,0.371-1.073,1.346c0,2.809,4.194,3.335,4.194,7.237c0,2.184-1.092,3.433-3.199,3.433c-2.107,0-3.2-1.248-3.2-3.433
		v-0.839h2.029v0.976c0,0.975,0.429,1.326,1.112,1.326c0.683,0,1.112-0.351,1.112-1.326c0-2.809-4.194-3.335-4.194-7.237
		C171.082,328.769,172.155,327.521,174.242,327.521z"/>
	<path d="M128.012,351.273v1.814c0,2.184-1.092,3.433-3.199,3.433c-2.107,0-3.199-1.248-3.199-3.433v-7.101
		c0-2.184,1.092-3.433,3.199-3.433c2.107,0,3.199,1.248,3.199,3.433v1.327h-2.029v-1.463c0-0.975-0.429-1.346-1.112-1.346
		c-0.683,0-1.111,0.371-1.111,1.346v7.374c0,0.975,0.429,1.326,1.111,1.326c0.683,0,1.112-0.351,1.112-1.326v-1.951H128.012z"/>
	<path d="M131.463,348.464h2.945v1.951h-2.945v3.999h3.706v1.951h-5.852v-13.654h5.852v1.951h-3.706V348.464z"/>
	<path d="M140.98,356.364c-0.117-0.351-0.195-0.566-0.195-1.678v-2.145c0-1.268-0.429-1.737-1.405-1.737h-0.741v5.56h-2.146v-13.654
		h3.238c2.224,0,3.18,1.034,3.18,3.14v1.073c0,1.404-0.449,2.321-1.404,2.77c1.073,0.448,1.424,1.482,1.424,2.906v2.107
		c0,0.664,0.019,1.151,0.234,1.658H140.98z M138.64,344.66v4.194h0.839c0.799,0,1.288-0.351,1.288-1.444v-1.346
		c0-0.976-0.332-1.404-1.092-1.404H138.64z"/>
	<path d="M150.557,351.273v1.814c0,2.184-1.092,3.433-3.199,3.433c-2.107,0-3.199-1.248-3.199-3.433v-7.101
		c0-2.184,1.092-3.433,3.199-3.433c2.107,0,3.199,1.248,3.199,3.433v1.327h-2.029v-1.463c0-0.975-0.429-1.346-1.112-1.346
		c-0.683,0-1.111,0.371-1.111,1.346v7.374c0,0.975,0.429,1.326,1.111,1.326c0.683,0,1.112-0.351,1.112-1.326v-1.951H150.557z"/>
	<path d="M158.807,356.364h-2.165l-0.371-2.477h-2.633l-0.371,2.477h-1.97l2.185-13.654h3.14L158.807,356.364z M153.911,352.034
		h2.068l-1.034-6.906L153.911,352.034z"/>
	<path d="M161.712,346.474v9.89h-1.931v-13.654h2.692l2.204,8.173v-8.173h1.912v13.654h-2.204L161.712,346.474z"/>
	<path d="M167.952,345.986c0-2.184,1.151-3.433,3.257-3.433c2.107,0,3.258,1.248,3.258,3.433v7.101c0,2.184-1.151,3.433-3.258,3.433
		c-2.107,0-3.257-1.248-3.257-3.433V345.986z M170.098,353.223c0,0.975,0.429,1.346,1.111,1.346c0.683,0,1.112-0.371,1.112-1.346
		v-7.374c0-0.975-0.429-1.346-1.112-1.346c-0.683,0-1.111,0.371-1.111,1.346V353.223z"/>
	<path d="M178.737,342.553c2.088,0,3.161,1.248,3.161,3.433v0.429h-2.029v-0.566c0-0.975-0.39-1.346-1.073-1.346
		s-1.073,0.371-1.073,1.346c0,2.809,4.194,3.335,4.194,7.237c0,2.184-1.092,3.433-3.199,3.433c-2.107,0-3.2-1.248-3.2-3.433v-0.839
		h2.029v0.976c0,0.975,0.429,1.326,1.112,1.326c0.683,0,1.112-0.351,1.112-1.326c0-2.809-4.194-3.335-4.194-7.237
		C175.577,343.802,176.65,342.553,178.737,342.553z"/>
</g>
<g>
	<path d="M29.497,204.511h6.632v1.951h-2.243v11.704h-2.146v-11.704h-2.244V204.511z"/>
	<path d="M36.889,207.788c0-2.185,1.151-3.433,3.257-3.433c2.107,0,3.258,1.248,3.258,3.433v7.1c0,2.185-1.151,3.433-3.258,3.433
		c-2.107,0-3.257-1.248-3.257-3.433V207.788z M39.035,215.025c0,0.976,0.429,1.346,1.111,1.346c0.683,0,1.112-0.371,1.112-1.346
		v-7.373c0-0.976-0.429-1.346-1.112-1.346c-0.683,0-1.111,0.371-1.111,1.346V215.025z"/>
	<path d="M51.147,207.885v1.775c0,2.185-1.053,3.375-3.199,3.375h-1.014v5.13h-2.146v-13.655h3.16
		C50.094,204.511,51.147,205.701,51.147,207.885z M46.934,206.461v4.623h1.014c0.683,0,1.053-0.312,1.053-1.287v-2.049
		c0-0.975-0.371-1.288-1.053-1.288H46.934z"/>
	<path d="M6.398,228.107v1.814c0,2.185-1.092,3.433-3.199,3.433c-2.107,0-3.199-1.248-3.199-3.433v-7.1
		c0-2.185,1.092-3.433,3.199-3.433c2.107,0,3.199,1.248,3.199,3.433v1.327H4.369v-1.463c0-0.976-0.429-1.346-1.112-1.346
		c-0.683,0-1.111,0.371-1.111,1.346v7.373c0,0.976,0.429,1.327,1.111,1.327c0.683,0,1.112-0.351,1.112-1.327v-1.951H6.398z"/>
	<path d="M7.528,222.82c0-2.185,1.151-3.433,3.257-3.433c2.107,0,3.258,1.248,3.258,3.433v7.1c0,2.185-1.151,3.433-3.258,3.433
		c-2.107,0-3.257-1.248-3.257-3.433V222.82z M9.674,230.057c0,0.976,0.429,1.346,1.111,1.346c0.683,0,1.112-0.371,1.112-1.346
		v-7.373c0-0.976-0.429-1.346-1.112-1.346c-0.683,0-1.111,0.371-1.111,1.346V230.057z"/>
	<path d="M19.971,229.238l1.463-9.695h2.984v13.655H22.39v-9.792l-1.483,9.792h-2.029l-1.6-9.656v9.656h-1.872v-13.655h2.984
		L19.971,229.238z"/>
	<path d="M28.123,225.298h2.945v1.951h-2.945v3.999h3.706v1.951h-5.852v-13.655h5.852v1.951h-3.706V225.298z"/>
	<path d="M35.065,223.308v9.89h-1.931v-13.655h2.692l2.204,8.173v-8.173h1.912v13.655h-2.204L35.065,223.308z"/>
	<path d="M40.857,219.543h6.632v1.951h-2.243v11.704h-2.146v-11.704h-2.244V219.543z"/>
	<path d="M54.628,233.198h-2.165l-0.371-2.477h-2.633l-0.371,2.477h-1.97l2.185-13.655h3.14L54.628,233.198z M49.732,228.867H51.8
		l-1.034-6.905L49.732,228.867z"/>
	<path d="M60.107,233.198c-0.117-0.351-0.195-0.566-0.195-1.678v-2.146c0-1.268-0.429-1.736-1.405-1.736h-0.741v5.56h-2.146v-13.655
		h3.238c2.224,0,3.18,1.034,3.18,3.141v1.073c0,1.404-0.449,2.321-1.404,2.77c1.072,0.449,1.424,1.483,1.424,2.907v2.107
		c0,0.664,0.019,1.151,0.234,1.658H60.107z M57.767,221.494v4.194h0.839c0.799,0,1.288-0.351,1.288-1.444v-1.346
		c0-0.976-0.332-1.405-1.092-1.405H57.767z"/>
	<path d="M63.461,219.543h2.146v13.655h-2.146V219.543z"/>
	<path d="M66.991,222.82c0-2.185,1.151-3.433,3.257-3.433c2.107,0,3.258,1.248,3.258,3.433v7.1c0,2.185-1.151,3.433-3.258,3.433
		c-2.107,0-3.257-1.248-3.257-3.433V222.82z M69.137,230.057c0,0.976,0.429,1.346,1.111,1.346c0.683,0,1.112-0.371,1.112-1.346
		v-7.373c0-0.976-0.429-1.346-1.112-1.346c-0.683,0-1.111,0.371-1.111,1.346V230.057z"/>
	<path d="M77.776,219.387c2.088,0,3.161,1.248,3.161,3.433v0.429h-2.029v-0.566c0-0.976-0.39-1.346-1.073-1.346
		c-0.683,0-1.073,0.371-1.073,1.346c0,2.809,4.194,3.335,4.194,7.237c0,2.185-1.092,3.433-3.199,3.433c-2.107,0-3.2-1.248-3.2-3.433
		v-0.839h2.029v0.975c0,0.976,0.429,1.327,1.112,1.327c0.683,0,1.112-0.351,1.112-1.327c0-2.809-4.194-3.335-4.194-7.237
		C74.616,220.636,75.689,219.387,77.776,219.387z"/>
</g>
<g>
	<path d="M118.465,214.206l1.463-9.695h2.984v13.655h-2.028v-9.792l-1.483,9.792h-2.029l-1.6-9.656v9.656h-1.872v-13.655h2.984
		L118.465,214.206z"/>
	<path d="M124.471,204.511h2.146v13.655h-2.146V204.511z"/>
	<path d="M131.063,204.355c2.088,0,3.161,1.248,3.161,3.433v0.429h-2.029v-0.566c0-0.976-0.39-1.346-1.073-1.346
		c-0.683,0-1.073,0.371-1.073,1.346c0,2.809,4.194,3.335,4.194,7.237c0,2.185-1.092,3.433-3.199,3.433c-2.107,0-3.2-1.248-3.2-3.433
		v-0.839h2.029v0.975c0,0.976,0.429,1.327,1.112,1.327s1.112-0.351,1.112-1.327c0-2.809-4.194-3.335-4.194-7.237
		C127.903,205.603,128.976,204.355,131.063,204.355z"/>
	<path d="M141.38,204.355c2.088,0,3.161,1.248,3.161,3.433v0.429h-2.029v-0.566c0-0.976-0.39-1.346-1.073-1.346
		c-0.683,0-1.073,0.371-1.073,1.346c0,2.809,4.194,3.335,4.194,7.237c0,2.185-1.092,3.433-3.199,3.433c-2.107,0-3.2-1.248-3.2-3.433
		v-0.839h2.029v0.975c0,0.976,0.429,1.327,1.112,1.327s1.112-0.351,1.112-1.327c0-2.809-4.194-3.335-4.194-7.237
		C138.22,205.603,139.293,204.355,141.38,204.355z"/>
	<path d="M152.732,218.166h-2.165l-0.371-2.477h-2.633l-0.371,2.477h-1.97l2.185-13.655h3.14L152.732,218.166z M147.835,213.835
		h2.068l-1.034-6.905L147.835,213.835z"/>
	<path d="M153.725,204.511h2.146v11.704h3.531v1.951h-5.676V204.511z"/>
	<path d="M160.161,207.788c0-2.185,1.151-3.433,3.257-3.433c2.107,0,3.258,1.248,3.258,3.433v7.1c0,2.185-1.151,3.433-3.258,3.433
		c-2.107,0-3.257-1.248-3.257-3.433V207.788z M162.306,215.025c0,0.976,0.429,1.346,1.111,1.346c0.683,0,1.112-0.371,1.112-1.346
		v-7.373c0-0.976-0.429-1.346-1.112-1.346c-0.683,0-1.111,0.371-1.111,1.346V215.025z"/>
	<path d="M169.971,208.275v9.89h-1.931v-13.655h2.692l2.204,8.173v-8.173h1.912v13.655h-2.204L169.971,208.275z"/>
	<path d="M178.533,210.265h2.945v1.951h-2.945v3.999h3.706v1.951h-5.852v-13.655h5.852v1.951h-3.706V210.265z"/>
	<path d="M186.45,204.355c2.088,0,3.161,1.248,3.161,3.433v0.429h-2.029v-0.566c0-0.976-0.39-1.346-1.073-1.346
		s-1.073,0.371-1.073,1.346c0,2.809,4.194,3.335,4.194,7.237c0,2.185-1.092,3.433-3.199,3.433c-2.107,0-3.2-1.248-3.2-3.433v-0.839
		h2.029v0.975c0,0.976,0.429,1.327,1.112,1.327c0.683,0,1.112-0.351,1.112-1.327c0-2.809-4.194-3.335-4.194-7.237
		C183.291,205.603,184.363,204.355,186.45,204.355z"/>
	<path d="M123.058,225.61h2.77v1.951h-2.77v5.638h-2.146v-13.655h5.676v1.951h-3.531V225.61z"/>
	<path d="M134.312,233.198h-2.165l-0.371-2.477h-2.633l-0.371,2.477h-1.97l2.185-13.655h3.14L134.312,233.198z M129.415,228.867
		h2.068l-1.034-6.905L129.415,228.867z"/>
	<path d="M138.055,230.682l1.639-11.139h1.97l-2.107,13.655h-3.199l-2.107-13.655h2.165L138.055,230.682z"/>
	<path d="M142.463,222.82c0-2.185,1.151-3.433,3.257-3.433c2.107,0,3.258,1.248,3.258,3.433v7.1c0,2.185-1.151,3.433-3.258,3.433
		c-2.107,0-3.257-1.248-3.257-3.433V222.82z M144.609,230.057c0,0.976,0.429,1.346,1.111,1.346c0.683,0,1.112-0.371,1.112-1.346
		v-7.373c0-0.976-0.429-1.346-1.112-1.346c-0.683,0-1.111,0.371-1.111,1.346V230.057z"/>
	<path d="M154.848,233.198c-0.117-0.351-0.195-0.566-0.195-1.678v-2.146c0-1.268-0.429-1.736-1.405-1.736h-0.741v5.56h-2.146
		v-13.655h3.238c2.224,0,3.18,1.034,3.18,3.141v1.073c0,1.404-0.449,2.321-1.404,2.77c1.073,0.449,1.424,1.483,1.424,2.907v2.107
		c0,0.664,0.019,1.151,0.234,1.658H154.848z M152.507,221.494v4.194h0.839c0.799,0,1.288-0.351,1.288-1.444v-1.346
		c0-0.976-0.332-1.405-1.092-1.405H152.507z"/>
	<path d="M158.201,219.543h2.146v13.655h-2.146V219.543z"/>
	<path d="M161.283,219.543h6.632v1.951h-2.243v11.704h-2.146v-11.704h-2.244V219.543z"/>
	<path d="M168.674,222.82c0-2.185,1.151-3.433,3.257-3.433c2.107,0,3.258,1.248,3.258,3.433v7.1c0,2.185-1.151,3.433-3.258,3.433
		c-2.107,0-3.257-1.248-3.257-3.433V222.82z M170.82,230.057c0,0.976,0.429,1.346,1.111,1.346c0.683,0,1.112-0.371,1.112-1.346
		v-7.373c0-0.976-0.429-1.346-1.112-1.346c-0.683,0-1.111,0.371-1.111,1.346V230.057z"/>
	<path d="M179.459,219.387c2.088,0,3.161,1.248,3.161,3.433v0.429h-2.029v-0.566c0-0.976-0.39-1.346-1.073-1.346
		s-1.073,0.371-1.073,1.346c0,2.809,4.194,3.335,4.194,7.237c0,2.185-1.092,3.433-3.199,3.433c-2.107,0-3.2-1.248-3.2-3.433v-0.839
		h2.029v0.975c0,0.976,0.429,1.327,1.112,1.327c0.683,0,1.112-0.351,1.112-1.327c0-2.809-4.194-3.335-4.194-7.237
		C176.299,220.636,177.372,219.387,179.459,219.387z"/>
</g>
<g>
	<path d="M14.042,342.732h-2.146v-13.655h2.146v5.852h2.438v-5.852h2.185v13.655H16.48v-5.852h-2.438V342.732z"/>
	<path d="M20.048,332.354c0-2.185,1.151-3.433,3.257-3.433c2.107,0,3.258,1.248,3.258,3.433v7.1c0,2.185-1.151,3.433-3.258,3.433
		c-2.107,0-3.257-1.248-3.257-3.433V332.354z M22.194,339.591c0,0.976,0.429,1.346,1.111,1.346c0.683,0,1.112-0.371,1.112-1.346
		v-7.373c0-0.976-0.429-1.346-1.112-1.346c-0.683,0-1.111,0.371-1.111,1.346V339.591z"/>
	<path d="M32.433,342.732c-0.117-0.351-0.195-0.566-0.195-1.678v-2.146c0-1.268-0.429-1.736-1.405-1.736h-0.741v5.56h-2.146v-13.655
		h3.238c2.224,0,3.18,1.034,3.18,3.141v1.073c0,1.404-0.449,2.321-1.404,2.77c1.072,0.449,1.424,1.483,1.424,2.907v2.107
		c0,0.663,0.019,1.151,0.234,1.658H32.433z M30.093,331.027v4.194h0.839c0.799,0,1.288-0.351,1.288-1.444v-1.346
		c0-0.976-0.332-1.405-1.092-1.405H30.093z"/>
	<path d="M42.732,342.732h-2.165l-0.371-2.477h-2.633l-0.371,2.477h-1.97l2.185-13.655h3.14L42.732,342.732z M37.835,338.401h2.068
		l-1.034-6.905L37.835,338.401z"/>
	<path d="M48.211,342.732c-0.117-0.351-0.195-0.566-0.195-1.678v-2.146c0-1.268-0.429-1.736-1.405-1.736h-0.741v5.56h-2.146v-13.655
		h3.238c2.224,0,3.18,1.034,3.18,3.141v1.073c0,1.404-0.449,2.321-1.404,2.77c1.073,0.449,1.424,1.483,1.424,2.907v2.107
		c0,0.663,0.019,1.151,0.234,1.658H48.211z M45.871,331.027v4.194h0.839c0.799,0,1.288-0.351,1.288-1.444v-1.346
		c0-0.976-0.332-1.405-1.092-1.405H45.871z"/>
	<path d="M51.565,329.077h2.146v13.655h-2.146V329.077z"/>
	<path d="M55.095,332.354c0-2.185,1.151-3.433,3.257-3.433c2.107,0,3.258,1.248,3.258,3.433v7.1c0,2.185-1.151,3.433-3.258,3.433
		c-2.107,0-3.257-1.248-3.257-3.433V332.354z M57.24,339.591c0,0.976,0.429,1.346,1.111,1.346c0.683,0,1.112-0.371,1.112-1.346
		v-7.373c0-0.976-0.429-1.346-1.112-1.346c-0.683,0-1.111,0.371-1.111,1.346V339.591z"/>
	<path d="M65.88,328.921c2.088,0,3.161,1.248,3.161,3.433v0.429h-2.029v-0.566c0-0.976-0.39-1.346-1.073-1.346
		c-0.683,0-1.073,0.371-1.073,1.346c0,2.809,4.194,3.335,4.194,7.237c0,2.185-1.092,3.433-3.199,3.433c-2.107,0-3.2-1.248-3.2-3.433
		v-0.839h2.029v0.975c0,0.976,0.429,1.327,1.112,1.327c0.683,0,1.112-0.351,1.112-1.327c0-2.809-4.194-3.335-4.194-7.237
		C62.72,330.169,63.793,328.921,65.88,328.921z"/>
</g>
</svg>