<!-- Generator: Adobe Illustrator 19.2.0, SVG Export Plug-In  -->
<svg version="1.1"
	 xmlns="http://www.w3.org/2000/svg" xmlns:xlink="http://www.w3.org/1999/xlink" xmlns:a="http://ns.adobe.com/AdobeSVGViewerExtensions/3.0/"
	 x="0px" y="0px" width="509px" height="61.09px" viewBox="0 0 509 61.09" style="enable-background:new 0 0 509 61.09;"
	 xml:space="preserve">
<style type="text/css">
	.st0{fill:#2D6CB5;}
	.st1{fill:url(#SVGID_1_);}
	.st2{fill:url(#SVGID_2_);}
	.st3{fill:url(#SVGID_3_);}
	.st4{fill:url(#SVGID_4_);}
	.st5{fill:url(#SVGID_5_);}
	.st6{fill:url(#SVGID_6_);}
</style>
<defs>
</defs>
<path class="st0" d="M318,61.09H196c-11,0-20-9-20-20V23c0-11,9-20,20-20h122c11,0,20,9,20,20v18.09C338,52.09,329,61.09,318,61.09z
	"/>
<path class="st0" d="M145,61.09H23c-11,0-20-9-20-20V23C3,12,12,3,23,3h122c11,0,20,9,20,20v18.09C165,52.09,156,61.09,145,61.09z"
	/>
<path class="st0" d="M489,61.09H367c-11,0-20-9-20-20V23c0-11,9-20,20-20h122c11,0,20,9,20,20v18.09C509,52.09,500,61.09,489,61.09z
	"/>
<linearGradient id="SVGID_1_" gradientUnits="userSpaceOnUse" x1="254" y1="58.0904" x2="254" y2="-2.737579e-09">
	<stop  offset="0" style="stop-color:#929497"/>
	<stop  offset="0.2836" style="stop-color:#A6A8AA"/>
	<stop  offset="0.8605" style="stop-color:#D9DADB"/>
	<stop  offset="1" style="stop-color:#E6E7E8"/>
</linearGradient>
<path class="st1" d="M315,58.09H193c-11,0-20-9-20-20V20c0-11,9-20,20-20h122c11,0,20,9,20,20v18.09C335,49.09,326,58.09,315,58.09z
	"/>
<linearGradient id="SVGID_2_" gradientUnits="userSpaceOnUse" x1="81" y1="58.0904" x2="81" y2="-2.739398e-09">
	<stop  offset="0" style="stop-color:#929497"/>
	<stop  offset="0.2836" style="stop-color:#A6A8AA"/>
	<stop  offset="0.8605" style="stop-color:#D9DADB"/>
	<stop  offset="1" style="stop-color:#E6E7E8"/>
</linearGradient>
<path class="st2" d="M142,58.09H20c-11,0-20-9-20-20V20C0,9,9,0,20,0h122c11,0,20,9,20,20v18.09C162,49.09,153,58.09,142,58.09z"/>
<linearGradient id="SVGID_3_" gradientUnits="userSpaceOnUse" x1="425" y1="58.0904" x2="425" y2="-2.739398e-09">
	<stop  offset="0" style="stop-color:#929497"/>
	<stop  offset="0.2836" style="stop-color:#A6A8AA"/>
	<stop  offset="0.8605" style="stop-color:#D9DADB"/>
	<stop  offset="1" style="stop-color:#E6E7E8"/>
</linearGradient>
<path class="st3" d="M486,58.09H364c-11,0-20-9-20-20V20c0-11,9-20,20-20h122c11,0,20,9,20,20v18.09C506,49.09,497,58.09,486,58.09z
	"/>
<g>
	<path d="M42.959,22.386v1.945h-0.792V22.35c0-3.062-1.153-5.62-4.467-5.62c-3.35,0-4.503,2.558-4.503,5.62v12.897
		c0,3.062,1.153,5.584,4.503,5.584c3.314,0,4.467-2.522,4.467-5.584v-2.774h0.792v2.738c0,3.494-1.441,6.376-5.295,6.376
		c-3.819,0-5.26-2.882-5.26-6.376V22.386c0-3.495,1.441-6.377,5.26-6.377C41.519,16.009,42.959,18.891,42.959,22.386z"/>
	<path d="M45.732,22.386c0-4.18,1.837-6.377,5.332-6.377c3.566,0,5.404,2.197,5.404,6.377v12.825c0,4.179-1.837,6.376-5.404,6.376
		c-3.495,0-5.332-2.197-5.332-6.376V22.386z M46.525,35.248c0,3.71,1.549,5.62,4.539,5.62c3.026,0,4.611-1.91,4.611-5.62V22.35
		c0-3.711-1.585-5.62-4.611-5.62c-2.99,0-4.539,1.909-4.539,5.62V35.248z"/>
	<path d="M67.167,41.335h-0.901l-6.232-23.957v24.029h-0.721V16.19h1.225l6.196,23.921l6.197-23.921h1.225v25.218h-0.792V17.378
		L67.167,41.335z"/>
	<path d="M82.008,16.19c3.891,0,5.224,2.558,5.224,6.088v2.521c0,3.999-1.801,5.908-5.8,5.908h-3.603v10.7h-0.792V16.19H82.008z
		 M81.432,29.952c3.53,0,5.007-1.55,5.007-5.116v-2.594c0-3.098-1.044-5.296-4.431-5.296h-4.179v13.006H81.432z"/>
	<path d="M95.012,16.19c3.747,0,5.188,2.197,5.188,5.655v2.27c0,3.099-1.225,4.792-3.999,5.296c2.81,0.433,3.999,2.271,3.999,5.044
		v3.963c0,0.973,0.108,2.197,0.685,2.99h-0.865c-0.504-0.793-0.612-1.909-0.612-2.99v-3.963c0-3.711-2.233-4.684-5.512-4.684h-3.099
		v11.637h-0.792V16.19H95.012z M93.895,29.015c3.494,0,5.512-0.901,5.512-4.792v-2.306c0-3.062-1.189-4.972-4.431-4.972h-4.179
		v12.069H93.895z"/>
	<path d="M105.782,35.463l-1.477,5.944h-0.721l6.088-25.254h1.117l6.232,25.254h-0.792l-1.477-5.944H105.782z M105.926,34.743h8.682
		l-4.395-17.652L105.926,34.743z"/>
	<path d="M124.803,16.19c3.747,0,5.188,2.197,5.188,5.655v2.27c0,3.099-1.225,4.792-3.999,5.296c2.81,0.433,3.999,2.271,3.999,5.044
		v3.963c0,0.973,0.108,2.197,0.685,2.99h-0.865c-0.504-0.793-0.612-1.909-0.612-2.99v-3.963c0-3.711-2.233-4.684-5.512-4.684h-3.099
		v11.637h-0.792V16.19H124.803z M123.686,29.015c3.494,0,5.512-0.901,5.512-4.792v-2.306c0-3.062-1.189-4.972-4.431-4.972h-4.179
		v12.069H123.686z"/>
</g>
<g>
	<path d="M198.232,29.159v12.249h-0.792V16.19h0.792v12.248h9.115V16.19h0.792v25.218h-0.792V29.159H198.232z"/>
	<path d="M213.11,35.463l-1.477,5.944h-0.721l6.088-25.254h1.117l6.232,25.254h-0.792l-1.477-5.944H213.11z M213.254,34.743h8.682
		l-4.395-17.652L213.254,34.743z"/>
	<path d="M237.643,22.386v1.945h-0.792V22.35c0-3.062-1.153-5.62-4.467-5.62c-3.35,0-4.503,2.558-4.503,5.62v12.897
		c0,3.062,1.153,5.584,4.503,5.584c3.314,0,4.467-2.522,4.467-5.584v-2.774h0.792v2.738c0,3.494-1.441,6.376-5.295,6.376
		c-3.819,0-5.26-2.882-5.26-6.376V22.386c0-3.495,1.441-6.377,5.26-6.377C236.202,16.009,237.643,18.891,237.643,22.386z"/>
	<path d="M248.665,28.258v0.721h-7.421v11.672h8.827v0.757h-9.619V16.19h9.619v0.756h-8.827v11.312H248.665z"/>
	<path d="M257.887,16.19c3.747,0,5.188,2.197,5.188,5.655v2.27c0,3.099-1.225,4.792-3.999,5.296c2.81,0.433,3.999,2.271,3.999,5.044
		v3.963c0,0.973,0.108,2.197,0.685,2.99h-0.865c-0.504-0.793-0.612-1.909-0.612-2.99v-3.963c0-3.711-2.233-4.684-5.512-4.684h-3.099
		v11.637h-0.792V16.19H257.887z M256.77,29.015c3.494,0,5.512-0.901,5.512-4.792v-2.306c0-3.062-1.189-4.972-4.431-4.972h-4.179
		v12.069H256.77z"/>
	<path d="M282.67,22.386v1.945h-0.792V22.35c0-3.062-1.153-5.62-4.467-5.62c-3.35,0-4.503,2.558-4.503,5.62v12.897
		c0,3.062,1.153,5.584,4.503,5.584c3.314,0,4.467-2.522,4.467-5.584v-2.774h0.792v2.738c0,3.494-1.441,6.376-5.295,6.376
		c-3.819,0-5.26-2.882-5.26-6.376V22.386c0-3.495,1.441-6.377,5.26-6.377C281.229,16.009,282.67,18.891,282.67,22.386z"/>
	<path d="M286.272,16.19v25.218h-0.792V16.19H286.272z"/>
	<path d="M294.018,41.408V16.946h-5.512V16.19h11.816v0.756h-5.512v24.462H294.018z"/>
	<path d="M303.347,35.463l-1.477,5.944h-0.721l6.088-25.254h1.117l6.232,25.254h-0.792l-1.477-5.944H303.347z M303.491,34.743h8.682
		l-4.395-17.652L303.491,34.743z"/>
</g>
<g>
	<path d="M365.161,16.19l5.908,24.317l5.908-24.317h0.757l-6.053,25.218h-1.189l-6.16-25.218H365.161z"/>
	<path d="M388.72,28.258v0.721h-7.421v11.672h8.827v0.757h-9.619V16.19h9.619v0.756h-8.827v11.312H388.72z"/>
	<path d="M397.942,16.19c3.747,0,5.188,2.197,5.188,5.655v2.27c0,3.099-1.225,4.792-3.999,5.296c2.81,0.433,3.999,2.271,3.999,5.044
		v3.963c0,0.973,0.108,2.197,0.685,2.99h-0.865c-0.504-0.793-0.612-1.909-0.612-2.99v-3.963c0-3.711-2.233-4.684-5.512-4.684h-3.099
		v11.637h-0.792V16.19H397.942z M396.825,29.015c3.494,0,5.512-0.901,5.512-4.792v-2.306c0-3.062-1.189-4.972-4.431-4.972h-4.179
		v12.069H396.825z"/>
	<path d="M422.797,16.19c3.747,0,5.188,2.197,5.188,5.655v2.27c0,3.099-1.225,4.792-3.999,5.296c2.81,0.433,3.999,2.271,3.999,5.044
		v3.963c0,0.973,0.108,2.197,0.685,2.99h-0.865c-0.504-0.793-0.612-1.909-0.612-2.99v-3.963c0-3.711-2.233-4.684-5.512-4.684h-3.099
		v11.637h-0.792V16.19H422.797z M421.681,29.015c3.494,0,5.512-0.901,5.512-4.792v-2.306c0-3.062-1.189-4.972-4.431-4.972h-4.179
		v12.069H421.681z"/>
	<path d="M433.568,35.463l-1.477,5.944h-0.721l6.088-25.254h1.117l6.232,25.254h-0.792l-1.477-5.944H433.568z M433.712,34.743h8.682
		l-4.395-17.652L433.712,34.743z"/>
	<path d="M452.444,41.408V16.946h-5.512V16.19h11.816v0.756h-5.512v24.462H452.444z"/>
	<path d="M461.845,16.19v25.218h-0.792V16.19H461.845z"/>
	<path d="M465.484,41.408h-0.757V16.19h1.117l8.863,23.597V16.19h0.756v25.218h-0.973l-9.006-24.065V41.408z"/>
	<path d="M488.863,22.386v1.657h-0.792V22.35c0-3.062-1.153-5.62-4.467-5.62c-3.35,0-4.503,2.558-4.503,5.62v12.897
		c0,3.062,1.153,5.584,4.503,5.584c3.314,0,4.467-2.522,4.467-5.584v-5.729h-3.927v-0.721h4.719v6.413
		c0,3.494-1.441,6.376-5.295,6.376c-3.819,0-5.26-2.882-5.26-6.376V22.386c0-3.495,1.441-6.377,5.26-6.377
		C487.422,16.009,488.863,18.891,488.863,22.386z"/>
</g>
</svg>