<!-- Generator: Adobe Illustrator 19.2.0, SVG Export Plug-In  -->
<svg version="1.1"
	 xmlns="http://www.w3.org/2000/svg" xmlns:xlink="http://www.w3.org/1999/xlink" xmlns:a="http://ns.adobe.com/AdobeSVGViewerExtensions/3.0/"
	 x="0px" y="0px" width="501.715px" height="44.863px" viewBox="0 0 501.715 44.863"
	 style="enable-background:new 0 0 501.715 44.863;" xml:space="preserve">
<style type="text/css">
	.st0{fill:#929497;}
</style>
<defs>
</defs>
<g>
	<g>
		<path class="st0" d="M0,16.02c0.238-0.278,0.457-0.582,0.716-0.831c1.836-1.768,3.679-3.527,5.522-5.285
			c1.411-1.346,2.826-2.686,4.238-4.031c0.937-0.893,1.866-1.798,2.81-2.682c0.831-0.779,2-0.776,2.832,0.012
			c1.427,1.352,2.843,2.72,4.265,4.08c0.028,0.027,0.061,0.048,0.131,0.102c0.008-0.129,0.02-0.22,0.02-0.311
			c0.001-1.175,0-2.35,0.002-3.524c0.001-0.666,0.18-0.872,0.754-0.873c1.056-0.001,2.112-0.001,3.168,0
			c0.541,0.001,0.734,0.221,0.734,0.845c0.001,2.681,0.003,5.363-0.004,8.044c-0.001,0.221,0.06,0.366,0.205,0.502
			c1.206,1.139,2.41,2.279,3.608,3.429c0.151,0.145,0.262,0.347,0.391,0.522c0,0.126,0,0.251,0,0.377
			c-0.383,0.54-0.764,1.082-1.151,1.619c-0.333,0.463-0.632,0.503-1.043,0.114c-1.096-1.038-2.183-2.089-3.275-3.133
			c-0.96-0.918-1.922-1.834-2.882-2.751c-0.991-0.946-1.982-1.892-2.972-2.839c-1.068-1.021-2.137-2.042-3.201-3.069
			c-0.125-0.12-0.213-0.124-0.34-0.001c-0.973,0.942-1.951,1.877-2.929,2.813c-0.972,0.93-1.946,1.857-2.919,2.786
			c-0.979,0.934-1.957,1.869-2.936,2.804c-1.092,1.043-2.184,2.087-3.277,3.13c-0.126,0.12-0.248,0.247-0.382,0.355
			c-0.307,0.249-0.588,0.23-0.835-0.096C0.822,17.563,0.415,16.976,0,16.397C0,16.271,0,16.145,0,16.02z"/>
		<path class="st0" d="M17.028,29.398c0-2.667,0-5.318,0-7.987c-0.104-0.005-0.18-0.013-0.256-0.013
			c-1.385-0.001-2.77,0.005-4.155-0.006c-0.207-0.002-0.264,0.063-0.263,0.3c0.007,2.449,0.005,4.898,0.005,7.347
			c0,0.114,0,0.229,0,0.38c-0.109,0-0.193,0-0.276,0c-2.191,0-4.382,0.001-6.573,0c-0.846,0-1.31-0.527-1.311-1.495
			c-0.002-3.221,0.001-6.441-0.005-9.662c0-0.242,0.078-0.388,0.238-0.539c1.62-1.521,3.232-3.052,4.848-4.579
			c1.423-1.344,2.848-2.685,4.272-4.028c0.379-0.357,0.754-0.719,1.141-1.089c0.574,0.542,1.135,1.07,1.694,1.598
			c1.634,1.543,3.269,3.086,4.903,4.63c1.254,1.185,2.508,2.368,3.756,3.561c0.077,0.074,0.138,0.225,0.139,0.34
			c0.007,3.301,0.01,6.603,0.002,9.904c-0.002,0.796-0.48,1.349-1.168,1.352c-2.285,0.011-4.57,0.004-6.854,0.004
			C17.135,29.418,17.104,29.409,17.028,29.398z"/>
	</g>
	<g>
		<path d="M2.069,44.716v-7.423h1.234v7.423H2.069z"/>
		<path d="M4.907,38.969h1.185v0.805h0.044c0.196-0.381,0.723-0.892,1.669-0.892c1.175,0,2.017,0.74,2.017,2.142v3.692H8.621v-3.448
			c0-0.924-0.533-1.338-1.251-1.338c-0.848,0-1.262,0.604-1.262,1.359v3.426H4.907V38.969z"/>
		<path d="M11.938,36.88c0.392,0,0.712,0.288,0.712,0.685s-0.321,0.68-0.712,0.68c-0.392,0-0.718-0.283-0.718-0.68
			S11.547,36.88,11.938,36.88z M11.335,38.969h1.207v5.748h-1.207V38.969z"/>
		<path d="M13.896,41.557c0-1.572,0.924-2.686,2.48-2.686c1.398,0,2.246,0.903,2.289,1.909h-1.142
			c-0.098-0.484-0.511-0.908-1.082-0.908c-0.837,0-1.332,0.653-1.332,1.713v0.489c0,1.066,0.517,1.74,1.338,1.74
			c0.669,0,1.028-0.386,1.109-0.832h1.142c-0.152,1.147-0.984,1.833-2.322,1.833c-1.561,0-2.48-1.131-2.48-2.741V41.557z"/>
		<path d="M20.546,36.88c0.392,0,0.712,0.288,0.712,0.685s-0.321,0.68-0.712,0.68c-0.392,0-0.718-0.283-0.718-0.68
			S20.155,36.88,20.546,36.88z M19.943,38.969h1.207v5.748h-1.207V38.969z"/>
		<path d="M27.615,41.6v0.462c0,1.62-0.892,2.752-2.55,2.752s-2.561-1.131-2.561-2.752V41.6c0-1.561,0.908-2.73,2.561-2.73
			S27.615,40.034,27.615,41.6z M23.722,41.617v0.44c0,1.028,0.44,1.784,1.343,1.784c0.903,0,1.338-0.75,1.338-1.784v-0.44
			c0-1.049-0.44-1.778-1.338-1.778C24.168,39.839,23.722,40.573,23.722,41.617z"/>
	</g>
</g>
<g>
	<g>
		<path d="M110.053,44.716v-7.423h1.24l2.268,5.22h0.038l2.268-5.22h1.234v7.423h-1.115v-5.128h-0.049l-1.92,4.339h-0.886
			l-1.925-4.339h-0.044v5.128H110.053z"/>
		<path d="M119.379,36.88c0.392,0,0.712,0.288,0.712,0.685s-0.321,0.68-0.712,0.68s-0.718-0.283-0.718-0.68
			S118.987,36.88,119.379,36.88z M118.775,38.969h1.207v5.748h-1.207V38.969z"/>
		<path d="M126.692,37.294c1.517,0,2.442,1.011,2.442,2.398c0,1.403-0.935,2.393-2.447,2.393h-1.61v2.632h-1.234v-7.423H126.692z
			 M125.077,41.073h0.99c1.136,0,1.811-0.277,1.811-1.381c0-0.875-0.511-1.376-1.37-1.376h-1.43V41.073z"/>
		<path d="M129.917,42.095v-0.582c0-1.604,0.957-2.643,2.469-2.643c1.533,0,2.458,1.077,2.458,2.697v0.549h-3.736v0.136
			c0,0.968,0.522,1.61,1.343,1.61c0.614,0,1.033-0.305,1.18-0.799h1.147c-0.174,0.93-0.924,1.751-2.344,1.751
			C130.896,44.814,129.917,43.797,129.917,42.095z M133.664,41.274v-0.011c0-0.816-0.506-1.457-1.272-1.457
			c-0.778,0-1.283,0.642-1.283,1.457v0.011H133.664z"/>
		<path d="M136.127,38.969h1.207v0.756h0.044c0.147-0.359,0.576-0.837,1.376-0.837c0.158,0,0.294,0.011,0.408,0.033v1.066
			c-0.103-0.027-0.315-0.044-0.517-0.044c-0.968,0-1.294,0.598-1.294,1.37v3.404h-1.223V38.969z"/>
		<path d="M140.852,39.936h-0.805v-0.968h0.805v-0.571c0-1.131,0.576-1.615,1.838-1.615c0.266,0,0.43,0.022,0.533,0.033v0.908
			c-0.082-0.011-0.169-0.022-0.326-0.022c-0.576,0-0.865,0.185-0.865,0.794v0.473h1.12v0.968h-1.104v4.78h-1.196V39.936z"/>
		<path d="M145.067,36.88c0.392,0,0.712,0.288,0.712,0.685s-0.321,0.68-0.712,0.68s-0.718-0.283-0.718-0.68
			S144.675,36.88,145.067,36.88z M144.463,38.969h1.207v5.748h-1.207V38.969z"/>
		<path d="M147.296,36.902h1.207v7.814h-1.207V36.902z"/>
	</g>
	<g>
		<g>
			<path class="st0" d="M135.977,9.282c0,0.115-0.003,0.23-0.009,0.343c-0.006,0.114-0.014,0.227-0.026,0.339
				c-0.017,0.168-0.04,0.335-0.07,0.499c-0.032,0.179-0.072,0.356-0.118,0.529c-0.088,0.335-0.202,0.659-0.339,0.97
				c-0.02,0.045-0.04,0.089-0.061,0.134c-0.073,0.155-0.151,0.308-0.234,0.456c-0.025,0.044-0.051,0.089-0.077,0.133
				c-0.312,0.525-0.694,1.005-1.134,1.424c-0.042,0.04-0.084,0.079-0.127,0.118c-0.073,0.067-0.148,0.131-0.225,0.195
				c-0.05,0.041-0.101,0.082-0.152,0.122c-0.113,0.088-0.229,0.173-0.348,0.254c-0.017,0.012-0.034,0.023-0.052,0.035
				c-0.158,0.105-0.32,0.204-0.486,0.296c-0.15,0.083-0.304,0.16-0.461,0.231c-0.009,0.004-0.019,0.008-0.028,0.013
				c-0.311,0.139-0.634,0.255-0.968,0.346c-0.07,0.019-0.142,0.037-0.213,0.055c-0.335,0.079-0.68,0.134-1.033,0.161
				c-0.113,0.008-0.227,0.014-0.341,0.017c-0.057,0.002-0.115,0.002-0.172,0.002c-0.058,0-0.115-0.001-0.172-0.002
				c-0.115-0.003-0.228-0.009-0.341-0.017c-0.353-0.027-0.698-0.082-1.033-0.161c-0.071-0.017-0.142-0.035-0.213-0.055
				c-0.334-0.091-0.658-0.207-0.968-0.346c-0.01-0.005-0.019-0.008-0.028-0.013c-0.14-0.064-0.278-0.132-0.413-0.205
				c-0.183-0.099-0.362-0.207-0.534-0.322c-0.017-0.011-0.034-0.023-0.052-0.035c-0.119-0.081-0.235-0.166-0.348-0.254
				c-0.051-0.04-0.102-0.081-0.152-0.122c-0.076-0.063-0.151-0.128-0.225-0.195c-0.081-0.074-0.161-0.15-0.239-0.227
				c-0.393-0.393-0.737-0.835-1.022-1.315c-0.026-0.044-0.052-0.088-0.077-0.133c-0.084-0.149-0.162-0.301-0.234-0.456
				c-0.021-0.044-0.041-0.089-0.061-0.134c-0.137-0.312-0.251-0.636-0.339-0.97c-0.046-0.174-0.085-0.35-0.118-0.529
				c-0.029-0.164-0.052-0.331-0.07-0.499c-0.011-0.112-0.02-0.225-0.026-0.339c-0.006-0.114-0.009-0.228-0.009-0.343
				c0-0.115,0.023-0.23,0.029-0.343c0.003-0.07,0.034-0.139,0.034-0.208V8.728c0-0.043-0.012-0.086-0.008-0.129
				c0.004-0.042-0.001-0.084,0.005-0.126c0.015-0.125,0.028-0.25,0.051-0.373c0.032-0.179,0.069-0.356,0.115-0.529
				c0.088-0.335,0.201-0.659,0.338-0.97c0.01-0.022,0.019-0.045,0.029-0.067s0.02-0.044,0.03-0.067
				c0.072-0.155,0.15-0.308,0.234-0.456c0.025-0.044,0.051-0.089,0.077-0.133c0.312-0.525,0.694-1.005,1.134-1.424
				c0.042-0.04,0.084-0.079,0.127-0.118c0.073-0.067,0.148-0.131,0.225-0.195c0.05-0.041,0.101-0.082,0.152-0.122
				c0.113-0.088,0.229-0.173,0.348-0.254c0.017-0.012,0.034-0.023,0.052-0.035c0.3-0.2,0.616-0.377,0.947-0.527
				c0.01-0.004,0.019-0.008,0.028-0.013c0.311-0.139,0.634-0.255,0.968-0.346c0.07-0.019,0.142-0.037,0.213-0.055
				c0.335-0.079,0.68-0.134,1.033-0.161c0.113-0.008,0.227-0.014,0.341-0.017c0.057-0.001,0.115-0.002,0.172-0.002
				c0.058,0,0.115,0.001,0.172,0.002c0.114,0.003,0.228,0.009,0.341,0.017c0.353,0.027,0.697,0.082,1.033,0.161
				c0.071,0.017,0.142,0.035,0.213,0.055c0.334,0.091,0.657,0.207,0.968,0.346c0.01,0.004,0.019,0.008,0.028,0.013
				c0.331,0.15,0.648,0.327,0.947,0.527c0.017,0.011,0.035,0.023,0.052,0.035c0.119,0.081,0.235,0.166,0.348,0.254
				c0.051,0.04,0.102,0.081,0.152,0.122c0.076,0.063,0.151,0.128,0.225,0.195c0.042,0.038,0.084,0.077,0.126,0.117
				c0.44,0.42,0.823,0.899,1.135,1.425c0.026,0.044,0.052,0.088,0.077,0.133c0.084,0.149,0.162,0.301,0.234,0.456
				c0.021,0.044,0.041,0.089,0.061,0.134c0.137,0.312,0.251,0.636,0.339,0.97c0.046,0.174,0.085,0.35,0.118,0.529
				c0.029,0.164,0.053,0.331,0.07,0.499c0.005,0.052,0.01,0.105,0.014,0.158c0.005,0.06,0.008,0.121,0.012,0.181
				C135.974,9.052,135.977,9.167,135.977,9.282z"/>
			<path class="st0" d="M122.653,8.726c0.002,0.001,0.003,0.002,0.004,0.003c0,0,0,0.001,0.001,0.001V8.728
				C122.656,8.728,122.654,8.727,122.653,8.726z M122.532,8.665c0.006,0.003,0.012,0.006,0.018,0.01
				c0.031,0.017,0.055,0.034,0.103,0.052c-0.007-0.004-0.014-0.009-0.022-0.013C122.601,8.697,122.564,8.681,122.532,8.665z"/>
			<path class="st0" d="M122.532,8.665c0.031,0.016,0.069,0.032,0.099,0.048c-0.024-0.013-0.054-0.026-0.081-0.039
				C122.544,8.671,122.538,8.668,122.532,8.665z"/>
			
				<ellipse transform="matrix(0.5586 -0.8294 0.8294 0.5586 46.9007 105.5882)" class="st0" cx="122.656" cy="8.728" rx="0.001" ry="0.003"/>
		</g>
		<path class="st0" d="M140.333,22.341v6.91c0,0.142,0.007,0.169-0.129,0.169h-21.801c-0.136,0-0.256-0.027-0.256-0.169v-6.91
			c0-0.111-0.006-0.222-0.001-0.332c0.079-1.646,0.736-3.138,1.767-4.258c0.031-0.033,0.059-0.066,0.09-0.098
			c0.515-0.536,1.115-0.982,1.778-1.311c0.04-0.02,0.08-0.039,0.12-0.058c0.183-0.086,0.37-0.163,0.561-0.231
			c0.043-0.015,0.085-0.03,0.128-0.044c0.172-0.057,0.346-0.106,0.523-0.147c0.217,0.208,0.443,0.404,0.677,0.588
			c0.6,0.47,1.254,0.861,1.948,1.168c0.13,0.058,0.262,0.112,0.394,0.163c0.511,0.198,1.035,0.346,1.568,0.445
			c0.523,0.096,1.056,0.145,1.595,0.145c0.617,0,1.223-0.057,1.816-0.183c0.074-0.016,0.148-0.044,0.221-0.044c0,0,0,0,0.001,0
			c0.11,0,0.22,0,0.33,0c0,0,0,0,0.001,0c0.288,0,0.573-0.226,0.854-0.338c0.112-0.044,0.222-0.143,0.332-0.192
			c0.543-0.24,1.054-0.562,1.535-0.925c0,0,0,0,0,0c0.053,0,0.106-0.048,0.159-0.088c0.316-0.234,0.619-0.477,0.908-0.754
			c2.736,0.637,4.764,3.143,4.906,6.154C140.367,22.112,140.333,22.23,140.333,22.341z"/>
	</g>
</g>
<g>
	<g>
		<path d="M227.3,37.294h2.958c1.294,0,2.132,0.696,2.132,1.827c0,0.87-0.489,1.425-1.229,1.631v0.054
			c0.935,0.109,1.631,0.745,1.631,1.822c0,1.316-1.039,2.088-2.588,2.088H227.3V37.294z M228.529,40.431h1.044
			c1.104,0,1.593-0.37,1.593-1.104c0-0.658-0.43-1.055-1.164-1.055h-1.474V40.431z M228.529,43.737h1.18
			c1.3,0,1.827-0.37,1.827-1.153c0-0.767-0.517-1.223-1.436-1.223h-1.572V43.737z"/>
		<path d="M238.746,44.716h-1.185v-0.799h-0.054c-0.19,0.451-0.723,0.886-1.659,0.886c-1.18,0-1.996-0.68-1.996-2.012v-3.823h1.207
			v3.491c0,1.006,0.576,1.3,1.223,1.3c0.723,0,1.256-0.462,1.256-1.316v-3.475h1.207V44.716z"/>
		<path d="M242.292,38.871c1.359,0,2.126,0.729,2.126,1.746h-1.088c-0.038-0.402-0.288-0.848-1.071-0.848
			c-0.614,0-1.033,0.277-1.033,0.761c0,0.604,0.799,0.718,1.452,0.837c1.066,0.19,1.903,0.522,1.903,1.61
			c0,1.164-0.924,1.838-2.371,1.838c-1.381,0-2.251-0.653-2.251-1.68h1.175c0.065,0.468,0.473,0.783,1.153,0.783
			c0.767,0,1.12-0.364,1.12-0.788c0-0.598-0.669-0.696-1.436-0.848c-1.049-0.223-1.903-0.582-1.903-1.631
			C240.068,39.404,241.128,38.871,242.292,38.871z"/>
		<path d="M245.56,41.557c0-1.572,0.924-2.686,2.48-2.686c1.398,0,2.246,0.903,2.289,1.909h-1.142
			c-0.098-0.484-0.511-0.908-1.082-0.908c-0.837,0-1.332,0.653-1.332,1.713v0.489c0,1.066,0.517,1.74,1.338,1.74
			c0.669,0,1.028-0.386,1.109-0.832h1.142c-0.152,1.147-0.984,1.833-2.322,1.833c-1.561,0-2.48-1.131-2.48-2.741V41.557z"/>
		<path d="M253.107,44.803c-1.115,0-1.881-0.669-1.881-1.74c0-1.022,0.707-1.669,2.028-1.669h1.457v-0.549
			c0-0.658-0.392-1.022-1.066-1.022c-0.658,0-1.033,0.343-1.077,0.854h-1.131c0.049-0.979,0.701-1.794,2.235-1.794
			c1.278,0,2.229,0.636,2.229,1.92v3.915h-1.147v-0.707h-0.044C254.461,44.45,253.956,44.803,253.107,44.803z M254.712,42.824
			v-0.636h-1.251c-0.701,0-1.022,0.332-1.022,0.81c0,0.598,0.5,0.886,1.033,0.886C254.173,43.884,254.712,43.449,254.712,42.824z"/>
		<path d="M257.387,38.969h1.207v0.756h0.044c0.147-0.359,0.576-0.837,1.376-0.837c0.158,0,0.294,0.011,0.408,0.033v1.066
			c-0.103-0.027-0.315-0.044-0.517-0.044c-0.968,0-1.294,0.598-1.294,1.37v3.404h-1.224V38.969z"/>
	</g>
	<g>
		<path class="st0" d="M237.925,2.406c-4.775,0-8.645,3.871-8.645,8.645c0,4.775,3.871,8.645,8.645,8.645
			c4.775,0,8.645-3.871,8.645-8.645C246.57,6.276,242.7,2.406,237.925,2.406z M237.925,18.532c-4.132,0-7.482-3.35-7.482-7.482
			c0-4.132,3.35-7.482,7.482-7.482s7.482,3.35,7.482,7.482C245.407,15.183,242.057,18.532,237.925,18.532z"/>
		<polygon class="st0" points="242.765,17.6 244.614,15.943 257.901,26.868 255.305,29.503 		"/>
	</g>
</g>
<g>
	<g>
		<path d="M340.594,40.529c0-2.11,1.202-3.382,3.094-3.382c1.903,0,3.083,1.278,3.083,3.382v1.017c0,2.099-1.196,3.317-3.094,3.317
			c-1.903,0-3.083-1.218-3.083-3.317V40.529z M341.839,41.546c0,1.539,0.788,2.268,1.843,2.268s1.838-0.729,1.838-2.268v-1.028
			c0-1.533-0.783-2.316-1.838-2.316s-1.843,0.783-1.843,2.316V41.546z"/>
		<path d="M348.484,39.936h-0.805v-0.968h0.805v-0.571c0-1.131,0.576-1.615,1.838-1.615c0.266,0,0.43,0.022,0.533,0.033v0.908
			c-0.082-0.011-0.169-0.022-0.326-0.022c-0.576,0-0.865,0.185-0.865,0.794v0.473h1.12v0.968h-1.104v4.78h-1.196V39.936z"/>
		<path d="M351.67,42.095v-0.582c0-1.604,0.957-2.643,2.469-2.643c1.533,0,2.458,1.077,2.458,2.697v0.549h-3.736v0.136
			c0,0.968,0.522,1.61,1.343,1.61c0.614,0,1.033-0.305,1.18-0.799h1.147c-0.174,0.93-0.924,1.751-2.344,1.751
			C352.649,44.814,351.67,43.797,351.67,42.095z M355.417,41.274v-0.011c0-0.816-0.506-1.457-1.272-1.457
			c-0.778,0-1.283,0.642-1.283,1.457v0.011H355.417z"/>
		<path d="M357.88,38.969h1.207v0.756h0.043c0.147-0.359,0.576-0.837,1.376-0.837c0.158,0,0.294,0.011,0.408,0.033v1.066
			c-0.103-0.027-0.315-0.044-0.517-0.044c-0.968,0-1.294,0.598-1.294,1.37v3.404h-1.223V38.969z"/>
		<path d="M362.606,37.571h1.185v1.398h1.12v0.968h-1.12v3.067c0,0.625,0.234,0.799,0.881,0.799c0.103,0,0.201,0,0.272-0.011v0.924
			c-0.098,0.016-0.326,0.038-0.571,0.038c-1.397,0-1.784-0.5-1.784-1.653v-3.165h-0.794v-0.968h0.81V37.571z"/>
		<path d="M367.712,44.803c-1.115,0-1.881-0.669-1.881-1.74c0-1.022,0.707-1.669,2.028-1.669h1.457v-0.549
			c0-0.658-0.392-1.022-1.066-1.022c-0.658,0-1.033,0.343-1.077,0.854h-1.131c0.049-0.979,0.701-1.794,2.235-1.794
			c1.278,0,2.229,0.636,2.229,1.92v3.915h-1.147v-0.707h-0.043C369.066,44.45,368.56,44.803,367.712,44.803z M369.316,42.824v-0.636
			h-1.251c-0.701,0-1.022,0.332-1.022,0.81c0,0.598,0.5,0.886,1.033,0.886C368.777,43.884,369.316,43.449,369.316,42.824z"/>
		<path d="M374.003,38.871c1.359,0,2.126,0.729,2.126,1.746h-1.088c-0.038-0.402-0.288-0.848-1.071-0.848
			c-0.614,0-1.033,0.277-1.033,0.761c0,0.604,0.799,0.718,1.452,0.837c1.066,0.19,1.903,0.522,1.903,1.61
			c0,1.164-0.924,1.838-2.371,1.838c-1.381,0-2.251-0.653-2.251-1.68h1.175c0.065,0.468,0.473,0.783,1.153,0.783
			c0.767,0,1.12-0.364,1.12-0.788c0-0.598-0.669-0.696-1.436-0.848c-1.049-0.223-1.903-0.582-1.903-1.631
			C371.779,39.404,372.84,38.871,374.003,38.871z"/>
	</g>
	<path class="st0" d="M365.054,0.265c-0.368-0.353-0.953-0.354-1.321,0.005l-2.222,2.165l-10.025,9.768l-2.222,2.165
		c-0.368,0.359-0.383,0.944-0.04,1.321c0.007,0.008,0.015,0.016,0.022,0.024l1.778,1.825l2.924,3.001v0l1.778,1.825
		c0.008,0.008,0.015,0.015,0.023,0.023c0,0,0,0,0.001,0c0.01,0.01,0.021,0.019,0.031,0.029c0.001,0.001,0.002,0.002,0.003,0.002
		c0.002,0.002,0.004,0.003,0.005,0.005c0.01,0.009,0.02,0.017,0.03,0.025c0.003,0.003,0.007,0.005,0.01,0.007
		c0.009,0.007,0.018,0.014,0.027,0.02c0.004,0.003,0.009,0.006,0.013,0.009c0.008,0.006,0.016,0.011,0.025,0.017
		c0.005,0.003,0.01,0.006,0.015,0.009c0.008,0.005,0.015,0.01,0.023,0.014c0.006,0.003,0.011,0.006,0.017,0.009
		c0.007,0.004,0.015,0.008,0.022,0.012c0.006,0.003,0.012,0.006,0.019,0.009c0.007,0.004,0.014,0.007,0.022,0.01
		c0.007,0.003,0.013,0.006,0.02,0.009c0.007,0.003,0.014,0.006,0.021,0.009c0.007,0.003,0.014,0.005,0.021,0.008
		c0.007,0.003,0.014,0.005,0.021,0.008c0.007,0.002,0.014,0.005,0.021,0.007c0.007,0.002,0.014,0.004,0.021,0.006
		c0.007,0.002,0.015,0.004,0.022,0.006c0.007,0.002,0.014,0.004,0.021,0.005c0.007,0.002,0.015,0.004,0.022,0.005
		c0.007,0.002,0.014,0.003,0.021,0.004c0.008,0.001,0.015,0.003,0.023,0.004c0.007,0.001,0.014,0.002,0.021,0.003
		c0.008,0.001,0.015,0.002,0.023,0.003c0.007,0.001,0.014,0.002,0.021,0.002c0.008,0.001,0.015,0.001,0.023,0.002
		c0.007,0.001,0.014,0.001,0.021,0.001c0.008,0,0.015,0.001,0.023,0.001c0.007,0,0.014,0,0.021,0c0.008,0,0.016,0,0.023,0
		c0.007,0,0.014,0,0.021-0.001c0.008,0,0.015-0.001,0.023-0.001c0.007,0,0.014-0.001,0.021-0.002
		c0.008-0.001,0.015-0.001,0.023-0.002c0.007-0.001,0.014-0.002,0.021-0.003c0.008-0.001,0.015-0.002,0.023-0.003
		c0.007-0.001,0.014-0.002,0.021-0.004c0.007-0.001,0.015-0.003,0.022-0.004c0.007-0.001,0.014-0.003,0.021-0.005
		c0.007-0.002,0.015-0.003,0.022-0.005c0.007-0.002,0.014-0.004,0.021-0.006c0.007-0.002,0.014-0.004,0.022-0.006
		c0.007-0.002,0.014-0.004,0.021-0.007c0.007-0.002,0.014-0.005,0.021-0.007c0.007-0.002,0.014-0.005,0.021-0.008
		c0.007-0.003,0.014-0.005,0.021-0.008c0.007-0.003,0.014-0.006,0.021-0.009c0.007-0.003,0.013-0.006,0.02-0.009
		c0.007-0.003,0.014-0.007,0.021-0.01c0.007-0.003,0.013-0.006,0.019-0.01c0.007-0.004,0.014-0.008,0.021-0.012
		c0.006-0.003,0.012-0.007,0.019-0.01c0.007-0.004,0.014-0.009,0.021-0.013c0.006-0.004,0.012-0.007,0.018-0.011
		c0.007-0.005,0.014-0.01,0.021-0.014c0.006-0.004,0.011-0.008,0.017-0.012c0.007-0.005,0.014-0.011,0.022-0.016
		c0.005-0.004,0.01-0.008,0.015-0.012c0.008-0.006,0.016-0.013,0.024-0.02c0.004-0.003,0.008-0.007,0.012-0.01
		c0.012-0.01,0.023-0.021,0.034-0.032l0,0l0,0l2.222-2.165l10.025-9.768l2.222-2.165c0.011-0.011,0.022-0.022,0.033-0.034
		c0.004-0.004,0.007-0.008,0.01-0.012c0.007-0.008,0.014-0.016,0.021-0.024c0.004-0.005,0.008-0.01,0.012-0.015
		c0.006-0.007,0.012-0.014,0.017-0.022c0.004-0.005,0.008-0.011,0.012-0.016c0.005-0.007,0.01-0.014,0.015-0.021
		c0.004-0.006,0.008-0.011,0.011-0.017c0.005-0.007,0.009-0.014,0.014-0.021c0.004-0.006,0.007-0.012,0.011-0.018
		c0.004-0.007,0.008-0.014,0.012-0.021c0.003-0.006,0.007-0.012,0.01-0.019c0.004-0.007,0.008-0.014,0.011-0.021
		c0.003-0.006,0.006-0.013,0.009-0.019c0.003-0.007,0.007-0.014,0.01-0.021c0.003-0.007,0.006-0.013,0.008-0.02
		c0.003-0.007,0.006-0.014,0.009-0.022c0.003-0.007,0.005-0.013,0.007-0.02c0.003-0.007,0.005-0.014,0.008-0.022
		c0.002-0.007,0.004-0.014,0.006-0.021c0.002-0.007,0.004-0.014,0.006-0.022c0.002-0.007,0.004-0.014,0.005-0.021
		c0.002-0.007,0.004-0.015,0.005-0.022c0.002-0.007,0.003-0.014,0.005-0.021c0.001-0.007,0.003-0.015,0.004-0.022
		c0.001-0.007,0.002-0.014,0.004-0.022c0.001-0.007,0.002-0.015,0.003-0.022c0.001-0.007,0.002-0.015,0.003-0.022
		c0.001-0.007,0.002-0.015,0.002-0.022c0.001-0.007,0.001-0.015,0.002-0.022c0-0.007,0.001-0.015,0.001-0.022
		c0-0.007,0.001-0.015,0.001-0.022c0-0.007,0-0.015,0-0.022c0-0.007,0-0.015,0-0.022c0-0.007,0-0.015-0.001-0.022
		c0-0.007-0.001-0.015-0.001-0.022c-0.001-0.007-0.001-0.015-0.002-0.022c-0.001-0.007-0.002-0.015-0.002-0.022
		c-0.001-0.007-0.002-0.015-0.003-0.022c-0.001-0.007-0.002-0.015-0.003-0.022c-0.001-0.007-0.003-0.015-0.004-0.022
		c-0.001-0.007-0.003-0.014-0.004-0.021c-0.002-0.007-0.003-0.015-0.005-0.022c-0.002-0.007-0.003-0.014-0.005-0.021
		c-0.002-0.007-0.004-0.015-0.006-0.022c-0.002-0.007-0.004-0.014-0.006-0.021c-0.002-0.007-0.005-0.015-0.007-0.022
		c-0.002-0.007-0.005-0.013-0.007-0.02c-0.003-0.008-0.006-0.015-0.009-0.022c-0.003-0.006-0.005-0.013-0.008-0.019
		c-0.003-0.008-0.007-0.015-0.01-0.023c-0.003-0.006-0.005-0.012-0.008-0.018c-0.004-0.008-0.008-0.016-0.012-0.023
		c-0.003-0.006-0.006-0.011-0.009-0.017c-0.004-0.008-0.009-0.016-0.014-0.024c-0.003-0.005-0.006-0.01-0.009-0.015
		c-0.005-0.009-0.011-0.017-0.016-0.026c-0.003-0.004-0.005-0.009-0.008-0.013c-0.006-0.009-0.013-0.018-0.02-0.028
		c-0.002-0.003-0.005-0.007-0.007-0.01c-0.008-0.01-0.016-0.021-0.024-0.031c-0.001-0.002-0.003-0.004-0.004-0.006
		c-0.001-0.001-0.002-0.002-0.002-0.003c-0.009-0.011-0.018-0.022-0.028-0.032c0,0,0,0,0,0c-0.007-0.008-0.015-0.016-0.022-0.024v0
		l-1.778-1.825l-2.925-3.001l-1.778-1.825C365.07,0.28,365.062,0.272,365.054,0.265z M369.228,5.97
		c-0.177,0.355-0.316,0.744-0.407,1.161c-0.188,0.862-0.143,1.705,0.086,2.43l-10.49,10.221c-0.719-0.248-1.561-0.315-2.427-0.149
		c-0.502,0.096-0.968,0.262-1.383,0.482l-3.142-3.224c0.23-0.409,0.408-0.87,0.518-1.37c0.189-0.863,0.143-1.709-0.088-2.435
		l10.487-10.218c0.719,0.25,1.564,0.317,2.432,0.151c0.418-0.08,0.811-0.209,1.171-0.377L369.228,5.97z"/>
	<path class="st0" d="M363.155,8.284c-0.781-0.801-1.827-1.25-2.945-1.265c-1.119-0.015-2.176,0.407-2.977,1.188
		c-0.801,0.781-1.25,1.827-1.265,2.945c-0.014,1.119,0.408,2.176,1.188,2.977c0.781,0.801,1.827,1.25,2.945,1.265
		c0.019,0,0.037,0,0.056,0c1.098,0,2.133-0.421,2.921-1.188c0.801-0.781,1.25-1.827,1.265-2.945
		C364.358,10.143,363.936,9.085,363.155,8.284z M362.986,14.111c-0.776,0.756-1.798,1.166-2.883,1.15
		c-1.083-0.014-2.096-0.449-2.852-1.225c-0.756-0.776-1.165-1.8-1.151-2.883c0.014-1.083,0.449-2.096,1.225-2.852
		c0.763-0.743,1.765-1.151,2.829-1.151c0.018,0,0.036,0,0.054,0c1.083,0.014,2.096,0.449,2.852,1.225
		c0.756,0.776,1.164,1.8,1.15,2.883C364.197,12.342,363.762,13.355,362.986,14.111z"/>
	<path class="st0" d="M361.483,13.127c-0.384,0.341-0.818,0.604-1.303,0.788l-0.814-0.836c0.291-0.091,0.583-0.214,0.876-0.37
		c0.293-0.156,0.526-0.318,0.699-0.487c0.143-0.139,0.23-0.258,0.263-0.357c0.033-0.099,0.01-0.189-0.069-0.269
		c-0.054-0.055-0.124-0.079-0.209-0.071c-0.085,0.008-0.208,0.042-0.367,0.102c-0.159,0.06-0.367,0.148-0.624,0.264
		c-0.29,0.129-0.548,0.208-0.775,0.237c-0.227,0.029-0.429,0.012-0.607-0.051c-0.178-0.064-0.355-0.186-0.532-0.367
		c-0.27-0.277-0.392-0.58-0.366-0.909c0.026-0.329,0.199-0.686,0.518-1.069l-0.544-0.559l0.521-0.508l0.539,0.554
		c0.352-0.307,0.769-0.553,1.25-0.737l0.399,1.009c-0.504,0.184-0.898,0.413-1.18,0.688c-0.134,0.131-0.213,0.239-0.235,0.325
		c-0.023,0.086-0.003,0.161,0.059,0.224c0.054,0.055,0.118,0.082,0.193,0.08c0.075-0.002,0.182-0.029,0.323-0.079
		c0.141-0.05,0.326-0.13,0.556-0.24c0.472-0.218,0.861-0.321,1.168-0.312c0.307,0.01,0.583,0.14,0.826,0.39
		c0.275,0.282,0.409,0.598,0.401,0.948c-0.007,0.35-0.161,0.713-0.463,1.089l0.656,0.674l-0.521,0.508L361.483,13.127z"/>
	<path class="st0" d="M369.978,19.978v-4.652c0-0.801-0.649-1.451-1.451-1.451h-22.282v15.99c0,0.801,0.649,1.451,1.451,1.451
		h20.831c0.801,0,1.451-0.649,1.451-1.451V25.22c0.812-0.593,1.347-1.545,1.347-2.621C371.326,21.522,370.79,20.571,369.978,19.978z
		 M365.806,15.035h0.448c0.138,0,0.249,0.112,0.249,0.249s-0.111,0.249-0.249,0.249h-0.448c-0.138,0-0.249-0.112-0.249-0.249
		S365.669,15.035,365.806,15.035z M364.016,15.035h0.447c0.138,0,0.249,0.112,0.249,0.249s-0.112,0.249-0.249,0.249h-0.447
		c-0.138,0-0.249-0.112-0.249-0.249S363.879,15.035,364.016,15.035z M348.15,16.151c0.014-0.111,0.042-0.219,0.084-0.322
		c0.052-0.127,0.197-0.188,0.325-0.136c0.127,0.052,0.188,0.198,0.136,0.325c-0.025,0.062-0.042,0.127-0.051,0.194l-0.022,0.179
		c-0.017,0.137-0.141,0.233-0.278,0.216c-0.137-0.017-0.233-0.141-0.216-0.278L348.15,16.151z M348.403,23.879
		c-0.138,0-0.249-0.112-0.249-0.249v-0.448c0-0.138,0.112-0.249,0.249-0.249c0.138,0,0.249,0.112,0.249,0.249v0.448
		C348.652,23.767,348.54,23.879,348.403,23.879z M348.652,24.972v0.447c0,0.138-0.112,0.249-0.249,0.249
		c-0.138,0-0.249-0.112-0.249-0.249v-0.447c0-0.138,0.112-0.249,0.249-0.249C348.54,24.723,348.652,24.835,348.652,24.972z
		 M348.403,22.089c-0.138,0-0.249-0.112-0.249-0.249v-0.447c0-0.138,0.112-0.249,0.249-0.249c0.138,0,0.249,0.112,0.249,0.249v0.447
		C348.652,21.977,348.54,22.089,348.403,22.089z M348.403,20.299c-0.138,0-0.249-0.112-0.249-0.249v-0.447
		c0-0.138,0.112-0.249,0.249-0.249c0.138,0,0.249,0.112,0.249,0.249v0.447C348.652,20.187,348.54,20.299,348.403,20.299z
		 M348.403,18.509c-0.138,0-0.249-0.112-0.249-0.249v-0.447c0-0.138,0.112-0.249,0.249-0.249c0.138,0,0.249,0.112,0.249,0.249v0.447
		C348.652,18.397,348.54,18.509,348.403,18.509z M348.153,27.21v-0.447c0-0.138,0.112-0.249,0.249-0.249
		c0.138,0,0.249,0.112,0.249,0.249v0.447c0,0.138-0.112,0.249-0.249,0.249C348.265,27.459,348.153,27.347,348.153,27.21z
		 M349.124,28.946c-0.047,0.078-0.129,0.122-0.214,0.122c-0.043,0-0.087-0.011-0.127-0.035c-0.158-0.094-0.297-0.224-0.402-0.376
		c-0.078-0.113-0.05-0.268,0.063-0.347c0.113-0.078,0.268-0.05,0.347,0.063c0.064,0.093,0.15,0.173,0.247,0.231
		C349.155,28.675,349.194,28.828,349.124,28.946z M349.447,15.284c0-0.138,0.112-0.249,0.249-0.249h0.447
		c0.138,0,0.249,0.112,0.249,0.249s-0.112,0.249-0.249,0.249h-0.447C349.558,15.533,349.447,15.422,349.447,15.284z M350.674,29.213
		h-0.448c-0.138,0-0.249-0.112-0.249-0.249c0-0.138,0.112-0.249,0.249-0.249h0.448c0.138,0,0.249,0.112,0.249,0.249
		C350.923,29.101,350.811,29.213,350.674,29.213z M351.237,15.284c0-0.138,0.111-0.249,0.249-0.249h0.447
		c0.138,0,0.249,0.112,0.249,0.249s-0.112,0.249-0.249,0.249h-0.447C351.348,15.533,351.237,15.422,351.237,15.284z M352.463,29.213
		h-0.448c-0.138,0-0.249-0.112-0.249-0.249c0-0.138,0.112-0.249,0.249-0.249h0.448c0.138,0,0.249,0.112,0.249,0.249
		C352.713,29.101,352.601,29.213,352.463,29.213z M353.027,15.284c0-0.138,0.112-0.249,0.249-0.249h0.447
		c0.138,0,0.249,0.112,0.249,0.249s-0.112,0.249-0.249,0.249h-0.447C353.138,15.533,353.027,15.422,353.027,15.284z M354.254,29.213
		h-0.447c-0.138,0-0.249-0.112-0.249-0.249c0-0.138,0.112-0.249,0.249-0.249h0.447c0.138,0,0.249,0.112,0.249,0.249
		C354.503,29.101,354.391,29.213,354.254,29.213z M354.817,15.284c0-0.138,0.111-0.249,0.249-0.249h0.448
		c0.138,0,0.249,0.112,0.249,0.249s-0.112,0.249-0.249,0.249h-0.448C354.928,15.533,354.817,15.422,354.817,15.284z M356.044,29.213
		h-0.447c-0.138,0-0.249-0.112-0.249-0.249c0-0.138,0.111-0.249,0.249-0.249h0.447c0.138,0,0.249,0.112,0.249,0.249
		C356.293,29.101,356.181,29.213,356.044,29.213z M356.607,15.284c0-0.138,0.112-0.249,0.249-0.249h0.447
		c0.138,0,0.249,0.112,0.249,0.249s-0.112,0.249-0.249,0.249h-0.447C356.718,15.533,356.607,15.422,356.607,15.284z M357.834,29.213
		h-0.447c-0.138,0-0.249-0.112-0.249-0.249c0-0.138,0.112-0.249,0.249-0.249h0.447c0.138,0,0.249,0.112,0.249,0.249
		C358.083,29.101,357.971,29.213,357.834,29.213z M358.397,15.284c0-0.138,0.111-0.249,0.249-0.249h0.448
		c0.138,0,0.249,0.112,0.249,0.249s-0.111,0.249-0.249,0.249h-0.448C358.508,15.533,358.397,15.422,358.397,15.284z M359.624,29.213
		h-0.447c-0.138,0-0.249-0.112-0.249-0.249c0-0.138,0.111-0.249,0.249-0.249h0.447c0.138,0,0.249,0.112,0.249,0.249
		C359.873,29.101,359.761,29.213,359.624,29.213z M360.187,15.284c0-0.138,0.112-0.249,0.249-0.249h0.447
		c0.138,0,0.249,0.112,0.249,0.249s-0.112,0.249-0.249,0.249h-0.447C360.299,15.533,360.187,15.422,360.187,15.284z M361.414,29.213
		h-0.448c-0.138,0-0.249-0.112-0.249-0.249c0-0.138,0.112-0.249,0.249-0.249h0.448c0.138,0,0.249,0.112,0.249,0.249
		C361.663,29.101,361.551,29.213,361.414,29.213z M361.977,15.284c0-0.138,0.111-0.249,0.249-0.249h0.448
		c0.138,0,0.249,0.112,0.249,0.249s-0.111,0.249-0.249,0.249h-0.448C362.089,15.533,361.977,15.422,361.977,15.284z M363.204,29.213
		h-0.448c-0.138,0-0.249-0.112-0.249-0.249c0-0.138,0.112-0.249,0.249-0.249h0.448c0.138,0,0.249,0.112,0.249,0.249
		C363.453,29.101,363.341,29.213,363.204,29.213z M363.111,22.599c0-1.046,0.848-1.894,1.894-1.894c1.046,0,1.894,0.848,1.894,1.894
		c0,1.046-0.848,1.894-1.894,1.894C363.959,24.492,363.111,23.645,363.111,22.599z M364.994,29.213h-0.447
		c-0.138,0-0.249-0.112-0.249-0.249c0-0.138,0.112-0.249,0.249-0.249h0.447c0.138,0,0.249,0.112,0.249,0.249
		C365.243,29.101,365.131,29.213,364.994,29.213z M366.788,29.213h-0.452c-0.138,0-0.249-0.112-0.249-0.249
		c0-0.138,0.112-0.249,0.249-0.249h0.447c0.138,0,0.251,0.112,0.251,0.249C367.035,29.101,366.926,29.213,366.788,29.213z"/>
</g>
<g>
	<g>
		<path d="M445.581,41.481c0,1.49,0.642,2.322,1.778,2.322c0.968,0,1.61-0.609,1.626-1.479h1.202v0.082
			c0,1.436-1.196,2.458-2.833,2.458c-1.914,0-3.018-1.272-3.018-3.388v-0.908c0-2.132,1.104-3.42,3.018-3.42
			c1.642,0,2.833,1.055,2.833,2.561v0.082h-1.202c-0.016-0.93-0.658-1.577-1.626-1.577c-1.137,0-1.778,0.843-1.778,2.355V41.481z"/>
		<path d="M451.209,42.095v-0.582c0-1.604,0.957-2.643,2.469-2.643c1.533,0,2.458,1.077,2.458,2.697v0.549H452.4v0.136
			c0,0.968,0.522,1.61,1.343,1.61c0.614,0,1.033-0.305,1.18-0.799h1.147c-0.174,0.93-0.924,1.751-2.344,1.751
			C452.188,44.814,451.209,43.797,451.209,42.095z M454.956,41.274v-0.011c0-0.816-0.506-1.457-1.272-1.457
			c-0.778,0-1.283,0.642-1.283,1.457v0.011H454.956z"/>
		<path d="M457.419,38.969h1.207v0.756h0.043c0.147-0.359,0.576-0.837,1.376-0.837c0.158,0,0.294,0.011,0.408,0.033v1.066
			c-0.103-0.027-0.315-0.044-0.517-0.044c-0.968,0-1.294,0.598-1.294,1.37v3.404h-1.223V38.969z"/>
		<path d="M461.16,41.557c0-1.572,0.924-2.686,2.48-2.686c1.397,0,2.246,0.903,2.289,1.909h-1.142
			c-0.098-0.484-0.511-0.908-1.082-0.908c-0.837,0-1.332,0.653-1.332,1.713v0.489c0,1.066,0.517,1.74,1.338,1.74
			c0.669,0,1.028-0.386,1.109-0.832h1.142c-0.152,1.147-0.984,1.833-2.322,1.833c-1.561,0-2.48-1.131-2.48-2.741V41.557z"/>
		<path d="M468.708,44.803c-1.115,0-1.881-0.669-1.881-1.74c0-1.022,0.707-1.669,2.028-1.669h1.457v-0.549
			c0-0.658-0.392-1.022-1.066-1.022c-0.658,0-1.033,0.343-1.077,0.854h-1.131c0.049-0.979,0.701-1.794,2.235-1.794
			c1.278,0,2.229,0.636,2.229,1.92v3.915h-1.147v-0.707h-0.044C470.062,44.45,469.556,44.803,468.708,44.803z M470.312,42.824
			v-0.636h-1.251c-0.701,0-1.022,0.332-1.022,0.81c0,0.598,0.5,0.886,1.033,0.886C469.774,43.884,470.312,43.449,470.312,42.824z"/>
		<path d="M478.849,39.79h0.044v-2.887h1.207v7.814h-1.175v-0.875h-0.044c-0.294,0.587-0.897,0.952-1.669,0.952
			c-1.446,0-2.246-1.066-2.246-2.703v-0.5c0-1.604,0.837-2.697,2.246-2.697C477.979,38.892,478.577,39.268,478.849,39.79z
			 M476.196,41.633v0.424c0,1.169,0.56,1.746,1.332,1.746c0.848,0,1.376-0.62,1.376-1.74v-0.43c0-1.077-0.533-1.746-1.387-1.746
			C476.756,39.888,476.196,40.464,476.196,41.633z"/>
		<path d="M481.421,42.095v-0.582c0-1.604,0.957-2.643,2.469-2.643c1.533,0,2.458,1.077,2.458,2.697v0.549h-3.736v0.136
			c0,0.968,0.522,1.61,1.343,1.61c0.614,0,1.033-0.305,1.18-0.799h1.147c-0.174,0.93-0.924,1.751-2.344,1.751
			C482.4,44.814,481.421,43.797,481.421,42.095z M485.168,41.274v-0.011c0-0.816-0.506-1.457-1.272-1.457
			c-0.778,0-1.283,0.642-1.283,1.457v0.011H485.168z"/>
		<path d="M489.839,38.969h1.185v0.772h0.06c0.169-0.408,0.669-0.859,1.484-0.859c0.886,0,1.419,0.375,1.631,0.957h0.049
			c0.201-0.489,0.799-0.957,1.751-0.957c1.202,0,1.903,0.756,1.903,1.914v3.921h-1.207V41.1c0-0.729-0.402-1.185-1.104-1.185
			c-0.718,0-1.137,0.495-1.137,1.256v3.545h-1.175v-3.545c0-0.854-0.446-1.256-1.115-1.256c-0.625,0-1.126,0.413-1.126,1.245v3.556
			h-1.202V38.969z"/>
		<path d="M499.464,38.969h1.207v5.748h-1.207V38.969z M499.54,38.256l1.06-1.533h1.115l-1.3,1.533H499.54z"/>
	</g>
	<g>
		<path class="st0" d="M472.498,1.098c-7.786-0.02-14.116,6.29-14.139,14.094c-0.022,7.782,6.291,14.116,14.094,14.141
			c7.776,0.025,14.119-6.298,14.141-14.096C486.616,7.457,480.297,1.118,472.498,1.098z M472.476,27.056
			c-6.553,0-11.875-5.336-11.845-11.876c0.031-6.537,5.315-11.806,11.842-11.809c6.55-0.003,11.872,5.335,11.844,11.878
			C484.288,21.785,479.002,27.056,472.476,27.056z"/>
		<path class="st0" d="M471.724,13.001c0.296,0.523,0.381,1.06,1.124,1.13c0.581,0.054,0.996,0.831,0.741,1.361
			c-0.325,0.676,0.112,1.011,0.411,1.493c2.062-2.014,4.089-3.992,6.115-5.971c-0.028-0.055-0.056-0.11-0.084-0.166
			C477.28,11.562,474.53,12.275,471.724,13.001z"/>
		<path class="st0" d="M472.122,16.306c-0.583-0.056-1.016-0.819-0.766-1.349c0.315-0.669-0.084-1.022-0.396-1.521
			c-2.068,2.02-4.1,4.005-6.132,5.99c0.029,0.052,0.057,0.104,0.086,0.156c2.749-0.712,5.498-1.423,8.297-2.148
			C472.947,16.912,472.865,16.378,472.122,16.306z"/>
		<path class="st0" d="M472.644,4.765c0-0.133-0.108-0.241-0.241-0.241l0,0c-0.133,0-0.241,0.108-0.241,0.241V5.73
			c0,0.133,0.108,0.241,0.241,0.241l0,0c0.133,0,0.241-0.108,0.241-0.241V4.765z"/>
		<path class="st0" d="M479.361,8.801l0.603-0.603c0.116-0.116,0.116-0.306,0-0.422c-0.116-0.116-0.306-0.116-0.422,0l-0.603,0.603
			c-0.116,0.116-0.116,0.306,0,0.422C479.055,8.917,479.245,8.917,479.361,8.801z"/>
		<path class="st0" d="M482.714,15.137h-0.852c-0.164,0-0.298,0.077-0.298,0.241c0,0.164,0.134,0.241,0.298,0.241h0.852
			c0.164,0,0.298-0.077,0.298-0.241C483.012,15.214,482.878,15.137,482.714,15.137z"/>
		<path class="st0" d="M479.233,21.779c-0.116-0.116-0.306-0.116-0.422,0h0c-0.116,0.116-0.116,0.306,0,0.422l0.603,0.603
			c0.116,0.116,0.306,0.116,0.422,0c0.116-0.116,0.116-0.306,0-0.422L479.233,21.779z"/>
		<path class="st0" d="M472.403,24.403c-0.164,0-0.241,0.134-0.241,0.298v0.852c0,0.164,0.077,0.298,0.241,0.298
			c0.164,0,0.241-0.134,0.241-0.298v-0.852C472.644,24.537,472.567,24.403,472.403,24.403z"/>
		<path class="st0" d="M465.411,21.651l-0.603,0.603c-0.116,0.116-0.116,0.306,0,0.422c0.116,0.116,0.306,0.116,0.422,0l0.603-0.603
			c0.116-0.116,0.116-0.306,0-0.422C465.717,21.535,465.527,21.535,465.411,21.651z"/>
		<path class="st0" d="M462.911,14.655h-0.852c-0.164,0-0.298,0.318-0.298,0.482c0,0.164,0.134,0.482,0.298,0.482h0.852
			c0.164,0,0.298-0.318,0.298-0.482C463.209,14.973,463.075,14.655,462.911,14.655z"/>
		<path class="st0" d="M465.539,8.673c0.116,0.116,0.306,0.116,0.422,0c0.116-0.116,0.116-0.306,0-0.422l-0.603-0.603
			c-0.116-0.116-0.306-0.116-0.422,0v0c-0.116,0.116-0.116,0.306,0,0.422L465.539,8.673z"/>
	</g>
</g>
</svg>